<?xml version="1.0" standalone="no"?>
<!DOCTYPE svg PUBLIC "-//W3C//DTD SVG 1.1//EN" "http://www.w3.org/Graphics/SVG/1.1/DTD/svg11.dtd" >
<svg>
<metadata>
Created by FontForge 20110222 at Thu Apr 10 14:51:31 2014
 By Orthosie Webhosting
Copyright  2005, Joshua Darden &#38; Phil's Fonts, Inc. All rights reserved. Published by Garagefonts USA 301-260-2285 www.garagefonts.com
</metadata>
<defs>
<font id="FreightDispBlackItalicRegular" horiz-adv-x="743" >
  <font-face 
    font-family="FreightDispBlackItalicRegular"
    font-weight="400"
    font-style="italic"
    font-stretch="normal"
    units-per-em="1000"
    panose-1="2 0 6 3 3 0 0 9 0 4"
    ascent="750"
    descent="-250"
    x-height="456"
    cap-height="625"
    bbox="-209 -263 1094 857"
    underline-thickness="20"
    underline-position="-146"
    slope="-12"
    unicode-range="U+0020-FB02"
  />
<missing-glyph horiz-adv-x="500" 
 />
    <glyph glyph-name=".notdef" horiz-adv-x="500" 
 />
    <glyph glyph-name=".null" horiz-adv-x="0" 
 />
    <glyph glyph-name=".null" horiz-adv-x="0" 
 />
    <glyph glyph-name="nonmarkingreturn" horiz-adv-x="333" 
 />
    <glyph glyph-name="space" unicode=" " horiz-adv-x="152" 
 />
    <glyph glyph-name="exclam" unicode="!" horiz-adv-x="293" 
d="M151 207q-2 -5 -8 -5.5t-6 6.5v365q0 29 19.5 50t69.5 16h4q26 -3 41 -11t22 -19t6 -24.5t-7 -28.5l-141 -349v0zM116 -13q-31 0 -53 22t-22 54q0 31 22 52.5t53 21.5q30 0 52 -22t22 -52q0 -31 -22 -53.5t-52 -22.5z" />
    <glyph glyph-name="quotedbl" unicode="&#x22;" horiz-adv-x="365" 
d="M357 644h1l82 -39l-200 -202h-24zM177 644h1l82 -39l-200 -202h-24z" />
    <glyph glyph-name="numbersign" unicode="#" horiz-adv-x="525" 
d="M338 210l53 203h-158l-52 -203h157zM149 187h-134l1 23h139l53 203h-134l1 22h140l51 197h26l-52 -197h157l52 197h25l-51 -197h132v-22h-139l-53 -203h133l-1 -23h-139l-50 -192h-25l50 192h-157l-51 -192h-25z" />
    <glyph glyph-name="dollar" unicode="$" horiz-adv-x="525" 
d="M135 0q-33 8 -61 19.5t-51 22.5l16 181l29 -2l35 -119q20 -39 48 -62l4 9.5t10.5 24.5t14.5 34.5t16 39.5q19 48 45 108q-2 2 -3 2q-31 16 -59 34t-49.5 40t-34.5 49.5t-13 62.5q0 38 17 73t47.5 61.5t72 42t90.5 15.5q23 0 43.5 -3.5t40.5 -8.5l48 115h25l-50 -121
q15 -5 28.5 -10t25.5 -10l64 15l-29 -192l-27 1l-62 160q-2 2 -5 3.5l-7 3.5l-80 -193q4 -2 7.5 -4t8.5 -4q30 -15 58 -32.5t49.5 -40t35 -51.5t13.5 -67q0 -43 -18 -81.5t-50.5 -67t-77.5 -45.5t-99 -17q-25 0 -48 2.5t-46 6.5l-66 -160h-25l69 165v0zM382 598
q-14 5 -31 8.5t-34 3.5q-24 0 -43.5 -8t-33.5 -21.5t-22 -30.5t-8 -34q0 -38 27 -63t66 -46l79 191v0zM171 28q34 -17 81 -17q29 0 50.5 9.5t36.5 25t22.5 36.5t7.5 43t-8.5 39.5t-23.5 31.5t-34.5 26t-41.5 24l-3.5 -9.5t-10 -24.5t-14.5 -34.5t-17 -40.5q-20 -48 -45 -109
z" />
    <glyph glyph-name="percent" unicode="%" horiz-adv-x="608" 
d="M197 384q27 0 48.5 9.5t37 26t24 38.5t8.5 47q0 24 -8 45.5t-22.5 37.5t-35 25t-46.5 9q-27 0 -48.5 -10t-37 -27t-24 -39.5t-8.5 -47.5q0 -50 30.5 -82t81.5 -32zM196 364q-30 0 -54.5 10t-42.5 28t-27.5 42.5t-9.5 52.5q0 29 10.5 55.5t29 46.5t45 31.5t57.5 11.5
q30 0 55 -10.5t43 -28.5t27.5 -42.5t9.5 -52.5q0 -29 -10 -55.5t-29 -46t-45.5 -31t-58.5 -11.5zM440 4q26 0 48 9.5t37.5 26.5t24 39.5t8.5 47.5q0 24 -8 45t-23 36.5t-35.5 24.5t-45.5 9q-27 0 -48.5 -10t-37 -27t-24 -39.5t-8.5 -47.5q0 -50 30.5 -82t81.5 -32zM438 -16
q-30 0 -54.5 10t-42 28t-27 42t-9.5 52q0 30 10 56.5t29 46.5t45 31.5t58 11.5q30 0 54.5 -10.5t42.5 -28.5t27.5 -42.5t9.5 -52.5q0 -29 -10 -55.5t-29 -46t-45.5 -31t-58.5 -11.5zM606 640h26l-597 -654h-27z" />
    <glyph glyph-name="ampersand" unicode="&#x26;" horiz-adv-x="771" 
d="M297 430q12 -62 71 -62q14 0 23.5 8t9.5 17q0 17 -21.5 27.5t-53.5 10.5h-15t-14 -1zM661 409q42 -18 67 -52t25 -78q0 -63 -31.5 -117t-85 -93t-123 -61.5t-146.5 -22.5q-84 0 -146.5 19.5t-104 53t-62 78.5t-20.5 97q0 66 41.5 114t106.5 74q-14 28 -14 57
q0 36 12.5 65.5t35 50.5t54 33t68.5 12q36 0 64 -13.5t46.5 -36.5t26.5 -52.5t3 -61.5l-18 4q3 37 -17.5 62t-64.5 25q-21 0 -36.5 -8.5t-26 -22t-16 -30.5t-5.5 -33v-13t1 -12q8 1 15.5 1h15.5q47 0 75 -19t28 -46t-23.5 -44.5t-60.5 -17.5q-44 0 -84 22t-65 56
q-39 -30 -39 -91q0 -50 21.5 -91t61.5 -70t97 -44.5t128 -15.5q59 0 108.5 15t84.5 41.5t54.5 61.5t19.5 74q0 23 -8 43.5t-22.5 35.5t-34.5 24t-43 9q-12 0 -27 -9.5t-28 -23t-22 -29.5t-9 -29q0 -35 21 -53t52 -18q-18 8 -26 26t-5 36.5t16.5 32.5t38.5 14
q24 0 39.5 -16.5t15.5 -42.5q0 -29 -22 -48t-60 -19q-27 0 -51.5 9.5t-43 27t-29 42t-10.5 53.5q0 39 18.5 65t45.5 45.5t59.5 34.5t59.5 32t45.5 38.5t18.5 53.5q0 19 -23 36t-58 17q19 -5 29 -23.5t8.5 -39t-16.5 -37t-46 -16.5q-27 0 -45.5 16.5t-18.5 45.5q0 32 26 52
t65 20q30 0 57 -11t46.5 -30t31 -45t11.5 -55q0 -21 -7 -38.5t-22.5 -33.5t-39.5 -31t-58 -31z" />
    <glyph glyph-name="quotesingle" unicode="'" horiz-adv-x="186" 
d="M177 644h1l82 -39l-200 -202h-24z" />
    <glyph glyph-name="parenleft" unicode="(" horiz-adv-x="340" 
d="M253 -263q-37 24 -77 68t-70.5 105.5t-45 138.5t-1.5 166q14 89 51 161t85 126.5t100 91t95 54.5l12 -20q-43 -18 -92.5 -53.5t-95 -88t-80 -121t-47.5 -152.5t0 -157.5t41 -132t65.5 -101.5t73.5 -66l-14 -19v0z" />
    <glyph glyph-name="parenright" unicode=")" horiz-adv-x="340" 
d="M-70 -244q42 18 92 53.5t95 88t79.5 121.5t47.5 153t0 157t-41 132t-65 101.5t-73 66.5l14 19q37 -24 77 -68.5t70 -106t45 -138t1 -165.5q-13 -90 -50.5 -162t-85 -126.5t-99.5 -90.5t-95 -54z" />
    <glyph glyph-name="asterisk" unicode="*" horiz-adv-x="332" 
d="M192 328l19 135q0 2 -4.5 3.5t-4.5 -0.5l-71 -111l-65 15l-3 3q-1 1 -1 1.5t-1 1.5l-1 1l7 67l130 26q3 1 3.5 6t-3.5 6l-125 45l2 68q0 1 4 3t5 2l66 6l53 -120q0 -2 4.5 -1t4.5 3l2 135l65 18q1 0 4 -1t3 -2l28 -57l-97 -95q0 -1 2.5 -5t3.5 -3l127 43l39 -55
q1 -1 1 -4t-2 -5l-46 -47l-119 63q-1 0 -4.5 -3.5t-1.5 -5.5l81 -108l-37 -52h-1q-2 0 -3 -1l-4 -2z" />
    <glyph glyph-name="plus" unicode="+" horiz-adv-x="447" 
d="M213 222h-196l3 27l193 1v195h28v-195l194 -1l2 -27h-196v-199h-28v199z" />
    <glyph glyph-name="comma" unicode="," horiz-adv-x="222" 
d="M-38 -129q120 50 120 132q0 18 -8 32t-20 22t-25.5 10.5t-25.5 -2.5q-3 13 1 29t14.5 29.5t27 22.5t37.5 9q24 0 41 -8.5t28 -22t16.5 -30.5t5.5 -35q0 -29 -14.5 -58.5t-41 -56t-64 -48.5t-83.5 -36z" />
    <glyph glyph-name="hyphen" unicode="-" horiz-adv-x="297" 
d="M33 264h247l-7 -48h-250z" />
    <glyph glyph-name="period" unicode="." horiz-adv-x="228" 
d="M85 -13q-32 0 -54.5 23t-22.5 56q0 32 22.5 55t54.5 23t55 -23.5t23 -54.5q0 -16 -6.5 -30.5t-17 -25t-24.5 -17t-30 -6.5z" />
    <glyph glyph-name="slash" unicode="/" horiz-adv-x="258" 
d="M224 641h24l-212 -877h-24z" />
    <glyph glyph-name="zero" unicode="0" horiz-adv-x="565" 
d="M247 12q34 0 62 36t48 89.5t31 115t11 111.5q0 110 -78 110q-22 0 -41.5 -17.5t-36 -46t-30 -65.5t-22.5 -76.5t-14 -77.5t-5 -70q0 -109 75 -109zM266 -14q-51 0 -93.5 16.5t-73 45.5t-47 69.5t-16.5 89.5q0 59 20.5 112t57 93t86 64t106.5 24q51 0 93.5 -16.5
t72.5 -45.5t46.5 -70t16.5 -89q0 -59 -20.5 -112t-57 -93.5t-85.5 -64t-106 -23.5z" />
    <glyph glyph-name="one" unicode="1" horiz-adv-x="370" 
d="M7 19l30 4q21 2 32 5t13 12l74 396l-88 16l5 16l245 29l-86 -458q-3 -11 44 -16l26 -4v-19h-301z" />
    <glyph glyph-name="two" unicode="2" horiz-adv-x="494" 
d="M-11 57q77 45 131 79.5t87.5 64.5t49.5 58t17 60q2 40 -22 68.5t-74 29.5q-29 1 -56 -13t-55 -45l-8 11q43 60 97.5 95.5t120.5 33.5q72 -2 113.5 -39t39.5 -93q-1 -37 -23.5 -67t-64 -59.5t-100 -61t-133.5 -72.5l-1 -4h201q24 0 41.5 5t33 17t30.5 31t33 47l14 22
l18 -1l-93 -224h-400z" />
    <glyph glyph-name="three" unicode="3" horiz-adv-x="459" 
d="M110 -197q-35 0 -66 6t-54 18t-36.5 31t-13.5 45q0 24 18 46t50 22q24 0 41 -12.5t25.5 -32t8 -43t-12.5 -46.5q7 -5 16.5 -8t19.5 -3q31 0 57 14.5t45 38.5t29.5 55t10.5 64q0 61 -33.5 96.5t-90.5 35.5q-17 0 -34.5 -3.5t-36.5 -9.5l-7 17q57 26 99 46.5t70 41.5
t41.5 45t13.5 57q0 41 -27.5 66t-68.5 25q-35 0 -66.5 -21.5t-52.5 -48.5l-8 13q20 30 44 55.5t52 44t59 29.5t65 11q33 0 61 -9t49 -25.5t32.5 -39.5t11.5 -51q0 -30 -14.5 -54.5t-40.5 -45t-63.5 -38t-82.5 -34.5v-4q12 3 26 3q35 0 63.5 -12.5t48.5 -33.5t31 -48.5
t11 -57.5q0 -50 -26 -94t-67 -78t-93 -53.5t-104 -19.5z" />
    <glyph glyph-name="four" unicode="4" horiz-adv-x="542" 
d="M252 86l53 271h-4l-245 -271h196zM236 6h-261v25l416 461l75 -7l-75 -399l112 -1l-24 -79h-104l-36 -190h-137z" />
    <glyph glyph-name="five" unicode="5" horiz-adv-x="448" 
d="M86 -200q-34 0 -63 7t-50 19t-33 29.5t-12 38.5q0 30 20.5 54.5t51.5 24.5q24 0 40.5 -12t23.5 -30.5t3.5 -40t-19.5 -40.5q8 -8 24.5 -16.5t38.5 -8.5q27 0 50 12t40 32.5t27 48t10 59.5q0 36 -16.5 65.5t-45.5 52.5t-69 39t-87 23l146 325h280l-23 -124h-286l-37 -84
q132 -19 200.5 -81t68.5 -148q0 -50 -24 -94t-64 -78t-91 -53.5t-104 -19.5z" />
    <glyph glyph-name="six" unicode="6" horiz-adv-x="552" 
d="M249 7q27 0 50 23.5t39.5 59t25.5 78.5t9 82q0 60 -24 88.5t-63 28.5q-31 0 -57 -24q-23 -50 -35.5 -107.5t-12.5 -111.5q0 -56 17 -86.5t51 -30.5zM260 -16q-52 0 -93.5 16.5t-71 46t-45 71t-15.5 91.5q0 84 41 163t115 140.5t177 97.5t228 34l10 -18
q-70 -5 -128.5 -26.5t-106 -56t-82.5 -79.5t-58 -97l3 -1q35 23 68.5 37t68.5 14t63.5 -13.5t48.5 -36.5t31.5 -55t11.5 -68q0 -53 -21 -100t-57.5 -82.5t-85 -56.5t-102.5 -21z" />
    <glyph glyph-name="seven" unicode="7" horiz-adv-x="483" 
d="M403 366l-1 1h-142q-54 0 -88 -3.5t-55 -12t-31.5 -22t-18.5 -33.5l-15 -25h-19l67 213h394l-1 -19l-352 -649h-120z" />
    <glyph glyph-name="eight" unicode="8" horiz-adv-x="533" 
d="M346 365q15 9 27 24.5t19.5 35t11.5 40t4 39.5q0 50 -25.5 82t-67.5 32q-22 0 -40.5 -8.5t-32 -23.5t-20.5 -35t-7 -42q0 -44 34 -77t97 -67zM250 7q23 0 43.5 8.5t35.5 24t24 36.5t9 45q0 48 -40.5 88.5t-106.5 75.5q-15 -9 -26.5 -24.5t-20 -35t-12.5 -41.5t-4 -45
q0 -57 27 -94.5t71 -37.5zM251 -15q-45 0 -87 12t-74 34t-51 52.5t-19 67.5q0 29 13 53.5t35.5 44t53.5 32t68 16.5v2q-45 26 -75.5 62t-30.5 85q0 39 19.5 74t51 61.5t72 42t82.5 15.5q47 0 88.5 -10.5t72.5 -30t49 -47.5t18 -63q0 -30 -14 -53t-37.5 -39.5t-53.5 -26.5
t-63 -15v-2q53 -28 88.5 -70t35.5 -96q0 -40 -21 -76.5t-55 -64.5t-77.5 -44t-88.5 -16z" />
    <glyph glyph-name="nine" unicode="9" horiz-adv-x="552" 
d="M272 111q14 0 29 7t27 18q24 53 36.5 110t12.5 111q0 56 -17.5 87t-50.5 31q-28 0 -50.5 -23.5t-39 -59.5t-25.5 -79t-9 -82q0 -60 24 -90t63 -30zM-48 -145q69 5 127.5 27t106 56.5t82.5 78.5t58 94l-2 1q-35 -24 -69 -37.5t-68 -13.5q-35 0 -63.5 14t-49 38t-31.5 56
t-11 68q0 53 21 100t57 82.5t84.5 56.5t103.5 21q52 0 93.5 -16.5t71 -46t45 -71t15.5 -91.5q0 -84 -41 -163t-115 -140.5t-177.5 -98t-228.5 -33.5z" />
    <glyph glyph-name="colon" unicode=":" horiz-adv-x="226" 
d="M141 280q-32 0 -54.5 23t-22.5 56q0 32 22 54.5t54 22.5t55.5 -23t23.5 -54q0 -16 -6.5 -30.5t-17 -25t-24.5 -17t-30 -6.5zM85 -13q-32 0 -54.5 23t-22.5 56q0 32 22.5 55t54.5 23t55 -23.5t23 -54.5q0 -16 -6.5 -30.5t-17 -25t-24.5 -17t-30 -6.5z" />
    <glyph glyph-name="semicolon" unicode=";" horiz-adv-x="222" 
d="M139 280q-16 0 -30 6t-24.5 16.5t-17 25t-6.5 30.5q0 32 22.5 55t54.5 23t55.5 -23.5t23.5 -54.5q0 -32 -23 -55t-55 -23zM-38 -131q120 50 120 131q0 18 -8 31.5t-20 21.5t-25.5 11t-25.5 -2q-3 13 1 29t14.5 29.5t27 22.5t37.5 9q24 0 41 -8.5t28 -22t16.5 -31
t5.5 -34.5q0 -29 -14.5 -58t-41 -55.5t-64 -48.5t-83.5 -37z" />
    <glyph glyph-name="less" unicode="&#x3c;" horiz-adv-x="438" 
d="M11 224v22l402 193l8 -27q-103 -48 -184 -87q-35 -17 -67.5 -32t-58.5 -28q-30 -15 -57 -28v-2l367 -177l-8 -27z" />
    <glyph glyph-name="equal" unicode="=" horiz-adv-x="441" 
d="M22 338h398l-4 -28h-391zM25 161h391l4 -29h-398z" />
    <glyph glyph-name="greater" unicode="&#x3e;" horiz-adv-x="438" 
d="M14 58l367 177v2l-15.5 7.5t-41 20t-58.5 28.5t-68 32q-81 39 -184 87l8 27l402 -193v-22l-402 -193z" />
    <glyph glyph-name="question" unicode="?" horiz-adv-x="361" 
d="M154 185q-29 23 -47.5 53.5t-18.5 59.5q0 22 11.5 38t31.5 27.5t47 19t58 12.5q58 8 79 20t21 26q0 15 -12 28.5t-33.5 24t-51.5 17t-66 6.5q-17 0 -31.5 -1t-26.5 -3q-11 11 -18 23.5t-7 28.5q0 32 23 54t66 22q42 0 77 -16.5t60 -44.5t39 -64.5t14 -76.5
q0 -73 -31.5 -109.5t-81.5 -47.5q-35 -7 -56 -12.5t-32.5 -11t-15 -11t-3.5 -13.5q0 -12 7.5 -22.5t22.5 -24.5l-25 -2v0zM131 -13q-30 0 -52 22t-22 54q0 31 22 52.5t52 21.5q31 0 53 -22t22 -52q0 -31 -22 -53.5t-53 -22.5z" />
    <glyph glyph-name="at" unicode="@" horiz-adv-x="812" 
d="M338 132q26 0 55 31t66 99q3 6 8 17.5t9.5 23.5t8 22.5t3.5 14.5q-3 16 -10.5 32t-18 28.5t-21.5 20t-20 7.5t-14.5 -4t-12.5 -11q-13 -12 -28.5 -39t-29 -59.5t-23 -67t-9.5 -61.5q0 -24 10 -39t27 -15zM420 -121q-82 0 -151 27t-119.5 75t-78.5 114t-28 144
q0 85 31.5 160t85.5 131.5t127.5 89t157.5 32.5q75 0 139 -23.5t110.5 -65.5t73 -101.5t26.5 -131.5q0 -56 -19 -107t-51 -90t-75.5 -62t-93.5 -23q-24 0 -45 6t-36.5 17.5t-25 28t-9.5 36.5q0 9 3 22t7.5 26.5t9 27.5t8.5 24h-4q-25 -42 -46.5 -75.5t-42.5 -57t-43 -36
t-48 -12.5q-43 0 -73.5 29t-32.5 77q0 57 33.5 121.5t89.5 119.5q39 41 76.5 57t63.5 16q37 0 53.5 -30t12.5 -72h4l45 117l120 -3l-67 -173l-47 -134q-9 -29 5.5 -51t59.5 -22q25 0 51 16.5t47.5 46t35 70t13.5 88.5q0 68 -24.5 124.5t-68.5 96.5t-104.5 62t-132.5 22
q-78 0 -147 -31.5t-120.5 -85t-81 -124.5t-29.5 -151q0 -76 26.5 -139t73.5 -108.5t112.5 -70.5t144.5 -25q43 0 82.5 11t74 30t62.5 44.5t46 54.5l10 -15q-19 -30 -48 -56.5t-65 -46t-77.5 -30.5t-86.5 -11z" />
    <glyph glyph-name="A" unicode="A" horiz-adv-x="651" 
d="M175 240l-33 -65q-25 -46 -39 -74.5t-14.5 -45t14 -23.5t44.5 -11l19 -3l2 -18h-223l3 18l20 3q24 3 39.5 9t31 24t35 53t51.5 96l165 317l-2 46q15 2 34 9t38 17.5t35 23.5t26 27h23l72 -513q5 -33 11.5 -53t14.5 -32t19 -16.5t24 -6.5l26 -4v-18h-335l3 18l24 2
q19 2 29.5 7t15 15.5t3.5 27.5t-5 43l-14 127h-157zM329 266l-25 221h-5l-111 -221h141z" />
    <glyph glyph-name="B" unicode="B" horiz-adv-x="635" 
d="M339 346q60 0 95.5 41t35.5 108q0 48 -28 76.5t-80 32.5h-27l-49 -252q9 -2 27 -4t26 -2zM286 21q33 0 60 13.5t46.5 36t30.5 52.5t11 62q0 31 -10.5 57t-29 45t-43.5 30t-54 11h-15l-55 -288l43 -19h16zM-19 17l39 7q24 3 33 7.5t11 10.5l104 543q2 7 -5.5 9.5
t-38.5 7.5l-30 6l-1 17h304q115 0 174.5 -37t59.5 -102q0 -62 -52.5 -100.5t-141.5 -47.5v-3q73 -14 119 -53t46 -102q0 -82 -69 -131t-212 -49h-344z" />
    <glyph glyph-name="C" unicode="C" horiz-adv-x="685" 
d="M373 -12q-80 0 -140 24t-100.5 65t-61 94.5t-20.5 111.5q0 66 25 130t73 114t117.5 80.5t158.5 30.5q65 0 110.5 -14t72.5 -31l82 26l-22 -209l-34 1l-58 158q-24 20 -56.5 30.5t-58.5 10.5q-56 0 -100 -34t-74 -88t-45.5 -120t-15.5 -129q0 -110 44.5 -168.5
t126.5 -58.5q48 0 87.5 26t69.5 74l54 103l34 -1l-47 -206l-45 4q-13 -4 -33 -8.5t-43.5 -8t-49 -5.5t-51.5 -2z" />
    <glyph glyph-name="D" unicode="D" horiz-adv-x="711" 
d="M292 23q54 1 98 31t74.5 81t47.5 119.5t17 146.5q0 94 -37 147t-122 53h-36l-107 -563l65 -15v0zM-19 17l41 7q23 3 32 7.5t10 10.5l105 543q1 7 -6.5 10t-37.5 7l-30 6l-1 17h282q80 0 140.5 -20.5t101.5 -57.5t62 -88.5t21 -111.5q0 -68 -27 -130.5t-79 -110.5
t-128 -77t-174 -29h-315z" />
    <glyph glyph-name="E" unicode="E" horiz-adv-x="641" 
d="M-19 17l41 7q23 3 32 7.5t10 10.5l105 543q1 7 -6.5 10t-37.5 7l-30 6l-1 17h532l-9 -216h-33l-5 29q-12 54 -31 86.5t-45 50.5t-60 23.5t-76 3.5l-33 -1l-52 -272l33 1q45 2 78 21t50 60l16 36h25l-60 -265h-24v34q0 22 -4 38.5t-14.5 27.5t-29.5 17t-50 7l-24 2
l-54 -283l70 -4q45 1 83.5 10t71.5 28.5t60.5 51t49.5 77.5l13 25h33l-60 -213h-567z" />
    <glyph glyph-name="F" unicode="F" horiz-adv-x="604" 
d="M-19 17l41 7q23 3 32 7.5t10 10.5l105 543q1 7 -6.5 10t-37.5 7l-30 6l-1 17h539l-22 -216h-33l-4 29q-9 52 -23 84t-35.5 50t-52 24t-72.5 6l-57 -3l-53 -278l32 1q46 2 78.5 20.5t49.5 60.5l17 37h24l-60 -266h-23l1 33q0 22 -4 39t-15 28.5t-30.5 17.5t-50.5 6h-23
l-51 -258q-1 -7 6.5 -10.5t36.5 -6.5l42 -5l1 -18h-334z" />
    <glyph glyph-name="G" unicode="G" horiz-adv-x="733" 
d="M382 -16q-76 0 -137.5 21.5t-105 60.5t-66.5 93.5t-23 120.5q0 74 28 139t79 114t121.5 77t155.5 28q63 0 112 -12t79 -31l81 24l-26 -213l-33 1l-60 165q-18 17 -51 28.5t-63 11.5q-53 0 -98.5 -30t-78.5 -81.5t-51.5 -120.5t-18.5 -147q0 -107 42 -166t114 -59
q23 0 40 4t23 7l42 218q2 11 -59 17l-30 5l-2 18h333l-5 -18l-47 -5q-23 -2 -28 -7t-6 -11l-38 -182l60 7v-15q-25 -11 -58 -22t-70.5 -20t-77 -14.5t-77.5 -5.5z" />
    <glyph glyph-name="H" unicode="H" horiz-adv-x="755" 
d="M-19 17l41 7q23 2 32 7t10 11l105 543q1 7 -6.5 10t-37.5 7l-30 6l-2 17h323l-4 -17l-39 -7q-22 -3 -31.5 -7.5t-10.5 -10.5l-49 -253h232l50 255q1 7 -6 9.5t-38 7.5l-29 6l-1 17h323l-4 -17l-40 -7q-23 -3 -32.5 -7.5t-10.5 -10.5l-104 -543q-2 -7 6 -10t37 -7l31 -6
l1 -17h-322l3 17l39 7q23 3 32 7.5t11 10.5l50 264h-232l-52 -266q-1 -7 7 -10t37 -7l29 -6l2 -17h-323z" />
    <glyph glyph-name="I" unicode="I" horiz-adv-x="385" 
d="M-8 17l43 7q41 4 43 18l104 543q2 7 -5.5 10t-37.5 7l-35 6l-2 17h331l-4 -17l-43 -7q-40 -4 -43 -18l-104 -543q-1 -7 7 -10t37 -7l34 -6l1 -17h-329z" />
    <glyph glyph-name="J" unicode="J" horiz-adv-x="378" 
d="M-57 -180q-56 0 -88 25t-32 63q0 15 6.5 28.5t17.5 23.5t25 16t29 6q25 0 42.5 -13t25 -33t3 -44.5t-22.5 -48.5q24 0 44 14t36.5 40t28.5 62.5t21 81.5l103 543q2 8 -6 11.5t-37 6.5l-38 6l-1 17h330l-4 -17l-39 -7q-23 -2 -32.5 -7.5t-10.5 -11.5l-102 -531
q-6 -37 -35.5 -77.5t-71.5 -74.5t-92.5 -56.5t-99.5 -22.5z" />
    <glyph glyph-name="K" unicode="K" horiz-adv-x="715" 
d="M-18 17l39 7q23 2 32.5 7t10.5 11l104 543q2 7 -5.5 10t-37.5 7l-31 6l-2 17h325l-3 -17l-41 -7q-41 -4 -43 -18l-53 -285l176 156q50 44 75 71.5t28.5 43.5t-11 23.5t-43.5 11.5l-22 4l-3 17h279l-3 -17l-33 -6q-24 -3 -45.5 -12.5t-46.5 -26.5t-56 -42t-73 -60l-38 -32
l125 -318q12 -30 21 -47.5t18 -27t19 -12.5t23 -5l10 -2l1 -17h-307l3 17l11 3q17 2 27 7t13 16.5t-2 32.5t-17 55l-70 187l-66 -56l-44 -222q-1 -7 6.5 -10t37.5 -7l31 -6l3 -17h-326z" />
    <glyph glyph-name="L" unicode="L" horiz-adv-x="611" 
d="M-19 17l40 7q24 3 33 7.5t10 10.5l105 543q1 7 -6.5 10t-37.5 7l-30 6l-2 17h331l-4 -17l-47 -7q-14 -2 -27.5 -7t-14.5 -11l-107 -558q15 -1 27 -2q11 -1 20.5 -1.5t12.5 -0.5q33 0 63 8.5t59 30t58.5 57.5t62.5 91l13 26h32l-56 -234h-538z" />
    <glyph glyph-name="M" unicode="M" horiz-adv-x="884" 
d="M-24 17l28 5q21 2 34 7t22 15.5t14.5 27t9.5 40.5l100 445q-5 20 -20 31.5t-34 13.5l-37 5l-1 18h272l62 -426l5 -1l228 427h262l-4 -17l-42 -7q-23 -2 -32.5 -7.5t-10.5 -11.5l-97 -496q-2 -20 -2 -31.5t4 -18t13.5 -9t25.5 -4.5l32 -6l1 -17h-331l3 17l49 7
q23 2 31.5 14t12.5 50l92 482h-6l-306 -564h-61l-79 540h-6l-96 -442q-4 -24 -4.5 -39t6 -24t20 -13t35.5 -6l29 -5l2 -17h-227z" />
    <glyph glyph-name="N" unicode="N" horiz-adv-x="702" 
d="M205 509h-4l-81 -401q-7 -42 5 -62.5t58 -23.5l29 -5l2 -17h-233l3 17l28 5q43 4 58 27.5t22 66.5l87 422q-15 30 -37.5 45.5t-42.5 17.5l-18 4l-2 20h256l228 -402h5l58 294q7 42 -5 62.5t-58 23.5l-29 5l-2 17h233l-4 -17l-27 -5q-43 -4 -58 -27.5t-22 -66.5l-105 -515
h-49z" />
    <glyph glyph-name="O" unicode="O" 
d="M352 11q33 0 61 17.5t51 48t41 71t30 87t18 96t6 96.5q0 38 -7.5 71t-23 58.5t-40.5 40t-61 14.5q-37 0 -66 -21.5t-52 -57t-39 -81t-26 -93t-15 -93.5t-5 -82q0 -35 6.5 -66.5t21.5 -55t39.5 -37t60.5 -13.5zM365 -14q-69 0 -126 23t-97.5 64t-63 96.5t-22.5 119.5
q0 68 26.5 130.5t73.5 111t112.5 77.5t144.5 29q70 0 128 -23.5t99.5 -65t64.5 -97t23 -120.5q0 -67 -26 -129.5t-74 -110.5t-115 -76.5t-148 -28.5z" />
    <glyph glyph-name="P" unicode="P" horiz-adv-x="619" 
d="M316 293q33 0 60.5 14.5t48 39t32 58t11.5 72.5q0 54 -27.5 88t-76.5 39h-29l-59 -305q9 -2 19.5 -4t20.5 -2zM-19 17l41 7q23 3 32 7.5t10 10.5l105 543q1 7 -6.5 10t-37.5 7l-30 6l-1 17h290q125 0 189 -45.5t64 -120.5q0 -43 -18.5 -78.5t-53.5 -60t-85 -38
t-113 -13.5q-23 0 -48.5 2t-44.5 7l-48 -238q-1 -7 6.5 -10.5t36.5 -6.5l41 -5l1 -18h-333z" />
    <glyph glyph-name="Q" unicode="Q" 
d="M352 10q51 0 89.5 38.5t64.5 99t39.5 135t13.5 145.5q0 37 -7.5 70.5t-23 58.5t-40.5 40t-61 15q-37 0 -66.5 -22t-52 -57.5t-38.5 -81t-26 -93.5t-15 -94t-5 -82q0 -35 7 -66t22.5 -54.5t40 -37.5t58.5 -14zM560 -187q-57 0 -104 7.5t-85 29t-67.5 59.5t-51.5 99
q-45 14 -81 41t-61.5 63.5t-39.5 81.5t-14 95q0 68 26.5 131t73.5 111t113 77t144 29q70 0 128 -24t99.5 -65t64.5 -97t23 -120q0 -58 -20 -112.5t-56.5 -99.5t-88.5 -77.5t-116 -46.5q15 -45 33 -75t44.5 -48t64.5 -26t94 -8l2 -13q-21 -5 -53.5 -8.5t-71.5 -3.5z" />
    <glyph glyph-name="R" unicode="R" horiz-adv-x="668" 
d="M345 330q31 1 56 13.5t42.5 33t27 47.5t9.5 57q0 53 -33.5 87.5t-92.5 34.5h-20l-50 -264q12 -3 31.5 -6t29.5 -3zM-19 17l41 7q23 2 32 7t10 11l104 543q2 7 -6 10t-37 7l-31 6l-1 17h307q53 0 98.5 -10.5t79 -30.5t53 -48t19.5 -64q0 -63 -47 -104t-143 -49l89 -201
q11 -28 19 -45.5t17 -28t20.5 -16t27.5 -9.5l7 -2l1 -17h-227l-107 308q-4 2 -13 4t-13 4l-55 -276q-1 -7 6.5 -10t36.5 -7l34 -5l2 -18h-327z" />
    <glyph glyph-name="S" unicode="S" horiz-adv-x="544" 
d="M258 -14q-72 0 -129.5 18t-98.5 38l16 181l29 -2l35 -119q22 -44 56.5 -67.5t92.5 -23.5q29 0 50.5 9.5t36.5 25t22.5 36.5t7.5 43q0 25 -11 44t-29 34t-41.5 28.5t-49.5 26.5q-31 16 -59 34t-49.5 40t-34.5 49.5t-13 62.5q0 38 17 73t47.5 61.5t72 42t90.5 15.5
q47 0 88 -12.5t73 -25.5l64 15l-29 -192l-27 1l-62 160q-14 10 -42 19t-58 9q-23 0 -42.5 -8t-33.5 -21.5t-22 -30.5t-8 -34q0 -23 10.5 -41t28.5 -33t41.5 -28t49.5 -26q30 -15 58 -32.5t49.5 -40t35 -51.5t13.5 -67q0 -43 -18 -81.5t-50.5 -67t-77.5 -45.5t-99 -17z" />
    <glyph glyph-name="T" unicode="T" horiz-adv-x="680" 
d="M140 17l44 7q23 2 32.5 7t10.5 11l107 562h-11q-30 -1 -59.5 -17t-56 -39.5t-49 -52t-39.5 -55.5l-17 -31h-32l65 216h574l-29 -215h-27l-7 32q-7 30 -19 59t-28.5 51.5t-38.5 36.5t-51 15h-13l-108 -564q-1 -7 7 -10.5t37 -6.5l34 -6l2 -17h-331z" />
    <glyph glyph-name="U" unicode="U" horiz-adv-x="706" 
d="M358 -20q-124 0 -193.5 51t-69.5 151q0 20 2 38.5t6 41.5q18 92 31 163q6 30 11.5 59.5t9.5 52t6.5 36t2.5 12.5q0 3 -0.5 5.5t-4.5 4.5t-13 3.5t-24 3.5l-31 6l-2 17h325l-4 -17l-40 -7q-23 -3 -32 -7.5t-11 -10.5l-61 -323q-9 -48 -9 -89q0 -68 38.5 -101t112.5 -33
q69 0 111.5 40.5t58.5 128.5l64 311q7 42 -6 63t-59 24l-30 4l-2 17h235l-4 -17l-28 -4q-42 -4 -57 -28t-21 -67l-65 -311q-20 -107 -83.5 -162.5t-163.5 -55.5z" />
    <glyph glyph-name="V" unicode="V" horiz-adv-x="665" 
d="M164 502q-7 32 -13.5 51t-13.5 29.5t-16 15t-23 5.5l-25 4l-1 18h327l-3 -18l-27 -2q-22 -1 -33.5 -5.5t-15.5 -14.5t-1 -27.5t9 -45.5l64 -332h5l147 264q28 50 43.5 79.5t16.5 46.5t-13 24t-44 10l-19 3l-2 18h223l-4 -18l-18 -3q-24 -3 -40 -9t-32.5 -24t-37 -53
t-54.5 -95l-246 -426h-48z" />
    <glyph glyph-name="W" unicode="W" horiz-adv-x="1000" 
d="M154 502q-6 30 -11.5 49t-12.5 30t-16 16t-23 6l-21 4l-1 18h328l-4 -18l-30 -2q-38 -2 -45.5 -17.5t-0.5 -50.5l64 -358h5l157 283l-7 42q-8 55 -20.5 76t-38.5 23l-27 4l-2 18h339l-4 -18l-29 -2q-18 -1 -29 -5t-17 -12.5t-7 -22.5t2 -36l47 -346h4l132 245
q26 50 42 82.5t18 52t-12 28.5t-47 13l-19 3l-2 18h228l-4 -18l-16 -4q-28 -4 -45 -11.5t-32.5 -25.5t-34.5 -51.5t-50 -90.5l-240 -435h-50l-68 434h-4l-246 -434h-46z" />
    <glyph glyph-name="X" unicode="X" horiz-adv-x="664" 
d="M-39 17l39 6q19 2 35 10t36.5 26t48 48t70.5 76l89 93l-96 217q-12 29 -21 49t-17 33t-17 19.5t-22 7.5l-32 6l-2 17h339l-4 -17l-24 -3q-30 -3 -40 -19t6 -54l53 -131l5 -1l49 54q44 49 67 77.5t26.5 43.5t-11 20.5t-44.5 8.5l-22 4l-1 17h239l-3 -17l-32 -6
q-21 -3 -39.5 -12t-41 -28t-51.5 -49.5t-72 -77.5l-54 -55l112 -255q23 -56 36.5 -79t34.5 -25l24 -4l1 -17h-329l3 17l25 3q32 3 42 19t-6 50l-68 166h-4q1 0 -10 -12t-25 -26q-16 -17 -35 -39q-46 -50 -69.5 -79.5t-27 -45.5t11.5 -22t46 -10l22 -4l2 -17h-245z" />
    <glyph glyph-name="Y" unicode="Y" horiz-adv-x="649" 
d="M122 17l44 7q41 4 43 18l45 233l-87 238q-9 24 -16 40.5t-15.5 26.5t-18.5 15t-25 8l-16 4l-1 18h329l-3 -18l-19 -3q-23 -2 -36 -7.5t-18.5 -14t-4.5 -20t6 -26.5l73 -222l5 -1l90 122q38 52 58 83.5t22.5 49.5t-12.5 25.5t-47 10.5l-23 3l-1 18h236l-4 -18l-25 -4
q-21 -3 -37 -10t-34.5 -26t-44.5 -52.5t-68 -89.5l-98 -133l-49 -252q-1 -7 7 -10t37 -7l33 -6v-17h-330z" />
    <glyph glyph-name="Z" unicode="Z" horiz-adv-x="635" 
d="M-5 20l469 574l-1 5l-79 2q-74 0 -138 -39t-107 -124l-12 -29h-31l46 216h525l-3 -20l-481 -574l-1 -4l79 -4q50 -3 88.5 5.5t72.5 31.5t67.5 62.5t72.5 98.5l15 28h32l-78 -249h-539z" />
    <glyph glyph-name="bracketleft" unicode="[" horiz-adv-x="325" 
d="M125 633h249l-1 -23h-224l-127 -827h224l-2 -22h-249z" />
    <glyph glyph-name="backslash" unicode="\" horiz-adv-x="246" 
d="M-3 641h24l212 -877h-24z" />
    <glyph glyph-name="bracketright" unicode="]" horiz-adv-x="325" 
d="M-56 -217h224l127 827h-224l1 23h249l-130 -872h-249z" />
    <glyph glyph-name="asciicircum" unicode="^" horiz-adv-x="379" 
d="M249 683h49l91 -191h-25l-106 90h-2l-146 -90h-25z" />
    <glyph glyph-name="underscore" unicode="_" horiz-adv-x="453" 
d="M-18 1h425l3 -37h-431z" />
    <glyph glyph-name="grave" unicode="`" horiz-adv-x="420" 
d="M149 684h136l80 -184h-25z" />
    <glyph glyph-name="a" unicode="a" horiz-adv-x="551" 
d="M190 73q29 0 60 35t72 111q3 7 8.5 19.5t11 25.5t9 24.5t3.5 15.5q-3 19 -11.5 37t-20.5 31.5t-25 21.5t-25 8q-6 0 -12 -3.5t-14 -11.5q-17 -17 -34 -47.5t-30.5 -65.5t-22 -71.5t-8.5 -66.5t10.5 -46.5t28.5 -16.5zM382 -14q-10 0 -25.5 8.5t-30.5 20.5t-25.5 25
t-10.5 21q0 21 13 56.5t36 93.5h-5q-30 -53 -55.5 -94.5t-49 -70t-47.5 -43.5t-52 -15q-25 0 -46.5 8.5t-37.5 24t-25 37.5t-9 49q0 63 37 134.5t99 133.5q45 45 84 63t68 18q21 0 35.5 -9.5t23 -26t11.5 -37.5t0 -45h5l44 110l132 -3l-78 -207l-53 -163l45 -6l66 86l9 -9
q-16 -33 -36.5 -62.5t-42 -51t-42 -34t-37.5 -12.5z" />
    <glyph glyph-name="b" unicode="b" horiz-adv-x="522" 
d="M220 9q15 0 25 4.5t20 14.5q20 20 39 53t33.5 71t23.5 76.5t9 69.5q0 73 -44 73q-16 0 -32.5 -15t-34 -40.5t-35.5 -60.5t-36 -76q-5 -12 -10.5 -29t-10 -33.5t-7.5 -30.5t-3 -21q6 -21 24.5 -38.5t38.5 -17.5zM195 -15q-30 0 -61.5 11t-56.5 29t-37.5 42t-5.5 50
l130 475q2 11 0 19.5t-9 10.5l-72 10l4 13l236 28l-31 -112q-18 -60 -35 -114t-31 -97.5t-24.5 -75.5t-16.5 -49q-2 -7 1 -7t5 5q28 61 52.5 105t48 72.5t47.5 42t51 13.5q57 0 87.5 -36t30.5 -87q0 -72 -33.5 -140.5t-86.5 -121.5q-39 -40 -88.5 -63t-104.5 -23z" />
    <glyph glyph-name="c" unicode="c" horiz-adv-x="418" 
d="M171 -13q-34 0 -62.5 12t-49.5 34t-33 52t-12 67q0 53 21.5 107.5t60 98t91.5 71t117 27.5q25 0 47 -7t38.5 -19t26 -29t9.5 -38q0 -37 -21.5 -61.5t-51.5 -24.5q-31 0 -49.5 19.5t-18.5 44.5q0 21 13 40.5t30 25.5q-11 7 -24.5 13.5t-22.5 6.5q-16 0 -40 -22
q-15 -15 -29.5 -41t-26.5 -59t-19.5 -70t-7.5 -73q0 -46 21 -72.5t58 -26.5q28 0 57.5 20t67.5 75l12 -10q-45 -85 -93.5 -123t-108.5 -38z" />
    <glyph glyph-name="d" unicode="d" horiz-adv-x="551" 
d="M190 73q29 0 60 35t72 111q3 7 8.5 19.5t11 25.5t9 24.5t3.5 15.5q-3 19 -11.5 36.5t-20.5 31t-25 22t-25 8.5q-6 0 -12 -3.5t-14 -11.5q-17 -17 -34 -47.5t-30.5 -65.5t-22 -71.5t-8.5 -66.5t10.5 -46.5t28.5 -16.5zM382 -14q-10 0 -25 9.5t-29.5 22.5t-25 27t-10.5 22
q0 21 12 53.5t35 90.5h-5q-30 -53 -55.5 -94.5t-49 -70t-47.5 -43.5t-52 -15q-25 0 -46.5 8.5t-37.5 24t-25 37.5t-9 49q0 63 37 134.5t99 133.5q45 45 84 63t68 18q21 0 34.5 -9.5t21.5 -26t10 -38t-1 -44.5h6l77 254q3 11 1 19.5t-10 10.5l-71 10l3 13l238 29l-141 -452
l-48 -147l45 -6l66 86l9 -9q-16 -33 -36.5 -62.5t-42 -51t-42 -34t-37.5 -12.5z" />
    <glyph glyph-name="e" unicode="e" horiz-adv-x="424" 
d="M165 231q28 9 55.5 22t49 30t34.5 38t13 47t-15 42t-32 16q-9 0 -16 -3.5t-13 -8.5q-11 -11 -23 -30t-23 -43t-19.5 -52t-13.5 -57l3 -1v0zM175 -13q-36 0 -65.5 12t-50.5 34t-33 52t-12 67q0 53 22 107.5t60.5 98t91 71t113.5 27.5q54 0 88.5 -26t34.5 -66
q0 -28 -18.5 -49.5t-53 -39t-82.5 -33t-108 -31.5q-3 -14 -4 -28.5t-1 -28.5q0 -41 22 -66t60 -25q29 0 63.5 20t72.5 75l12 -10q-45 -85 -98 -123t-114 -38z" />
    <glyph glyph-name="f" unicode="f" horiz-adv-x="331" 
d="M-57 -200q-51 0 -81.5 24t-30.5 62q0 26 18.5 46t50.5 20q19 0 35 -10t24.5 -26t6.5 -36.5t-18 -41.5l10 -4t9 -3t8 -1q12 4 22.5 18.5t21 44.5t22.5 78t27 118l48 283l-92 4l19 52l89 12q6 22 13.5 46.5t17 48t21.5 44t27 35.5q29 29 66.5 44t92.5 15q57 0 90.5 -27.5
t33.5 -67.5q0 -32 -20 -51.5t-49 -19.5q-27 0 -43.5 14t-22 34t1.5 41.5t28 37.5l-16 6q-15 5 -25 5q-15 -5 -28 -24t-23.5 -47.5t-19 -63.5t-16.5 -73l112 -1l-10 -59h-114l-64 -289q-17 -78 -43 -135.5t-63 -95.5q-29 -28 -61.5 -42.5t-74.5 -14.5z" />
    <glyph glyph-name="g" unicode="g" horiz-adv-x="457" 
d="M195 152q10 0 17.5 5t15.5 13q16 16 27.5 41.5t19.5 53.5t12 55.5t5 46.5q2 24 -12 42.5t-34 18.5q-8 0 -15.5 -4t-14.5 -10q-14 -14 -25 -38.5t-19 -52.5t-12.5 -55t-5.5 -46q-1 -18 3.5 -34.5t13.5 -25.5q4 -4 11 -7t13 -3zM182 -226q54 0 87.5 21t33.5 52
q0 26 -25.5 44t-73.5 34q-27 10 -60.5 19.5t-61.5 20.5q-29 -11 -43 -35t-14 -54q0 -49 40.5 -75.5t116.5 -26.5zM148 -252q-53 0 -96.5 8t-74 22.5t-47 35.5t-16.5 47q0 19 11.5 36t31 31.5t47 25.5t58.5 18v4q-25 14 -43 33.5t-18 43.5q0 19 10.5 35t27 28.5t36.5 21.5
t38 14v5q-39 22 -60.5 55.5t-21.5 71.5q0 37 17.5 69t47 55t67 36t76.5 12q33 -2 64.5 -12.5t51.5 -24.5l135 17l-18 -82l-110 39l-1 -5q26 -21 38.5 -48t12.5 -54q0 -35 -17.5 -64t-46 -50t-65 -31.5t-74.5 -9.5q-20 1 -40.5 5.5t-37.5 11.5q-14 -6 -20 -17.5t-6 -22.5
q0 -17 21.5 -24t72.5 -20l41 -10q32 -8 62 -19.5t53 -28.5t36.5 -40.5t13.5 -56.5q0 -31 -20 -60t-55 -51.5t-81.5 -36t-100.5 -13.5z" />
    <glyph glyph-name="h" unicode="h" horiz-adv-x="543" 
d="M373 -14q-8 0 -23 8t-29.5 19t-25.5 24.5t-11 23.5t3.5 23t10.5 32t17 45t23 60q14 37 25 65t11 41q0 4 -5 8.5t-12 8.5t-15.5 6.5t-16.5 2.5q-18 0 -55.5 -56t-98.5 -184l-36 -115l-143 2l52 160l126 432q3 11 1 19.5t-10 10.5l-71 10l4 13l235 28l-32 -112
q-18 -60 -35.5 -118.5t-33.5 -109.5t-30 -92.5t-24 -68.5h1q1 0 2 -1q2 -1 4 -1q18 37 37.5 74t38.5 69.5t35.5 57.5t29.5 38q18 17 42.5 31.5t44.5 14.5q26 0 46 -7.5t34 -18.5t21.5 -25t7.5 -27q0 -25 -14 -70t-34 -97q-6 -16 -15.5 -38.5t-17.5 -44.5l-20 -52l42 -6
l70 86l10 -9q-18 -33 -40 -62.5t-44.5 -51t-43.5 -34t-38 -12.5z" />
    <glyph glyph-name="i" unicode="i" horiz-adv-x="301" 
d="M259 511q-35 0 -54 22t-19 52q0 20 6.5 36.5t17 28.5t23.5 19t27 7q35 0 54.5 -22t18.5 -52q0 -19 -6 -36t-16.5 -29t-24 -19t-27.5 -7zM122 -14q-8 0 -23 8t-30 19.5t-25.5 25t-10.5 23.5q0 4 4.5 19t11.5 36.5t16.5 48.5t18.5 55q22 65 50 145l-52 5l-60 -92l-11 10
q15 33 34 63t39 53.5t40 37t37 13.5q8 0 26 -7t36.5 -17t32 -22t13.5 -23q0 -4 -4.5 -20t-12 -38.5t-16.5 -50.5t-19 -56q-23 -66 -53 -147l42 -6l70 86l9 -9q-18 -33 -39 -62.5t-43 -51t-43 -34t-38 -12.5z" />
    <glyph glyph-name="j" unicode="j" horiz-adv-x="284" 
d="M268 511q-35 0 -54 21.5t-19 51.5q0 40 23 65.5t51 25.5q35 0 54.5 -21.5t18.5 -52.5q-1 -39 -23 -64.5t-51 -25.5zM-114 -253q-18 0 -35 5.5t-30.5 16.5t-21.5 27t-8 36q0 27 18.5 47.5t52.5 20.5q22 0 37.5 -13.5t22 -32.5t2 -41t-23.5 -38l47 12q21 24 36.5 68.5
t35.5 112.5l122 397l-54 6l-60 -92l-11 10q16 33 35 63t39 53.5t39.5 37t36.5 13.5q8 0 26 -7t36.5 -17t32 -22t13.5 -23q0 -6 -7 -31.5t-18.5 -62t-26 -79.5t-29 -84.5t-27.5 -76t-23 -53.5q-23 -60 -50.5 -105t-59.5 -77q-71 -71 -147 -71z" />
    <glyph glyph-name="k" unicode="k" horiz-adv-x="483" 
d="M324 -12q-16 0 -38 7t-30 16q0 56 -5 96.5t-12 67t-15 39.5t-13 13q-2 0 -10 -3t-9 -5l-57 -221l-146 2q1 3 7.5 22t14.5 44t16.5 51.5t14.5 42.5q8 23 17 53.5t18.5 65t20 71t19.5 71.5q22 82 45 171q3 11 1 19.5t-9 10.5l-72 10l4 13l238 28l-30 -112
q-32 -111 -57 -189.5t-42 -130.5q7 2 14.5 3t15.5 3q16 6 39 15.5t45 20t39.5 20.5t23.5 15v6q-24 9 -38 25.5t-14 42.5q0 29 22 50t53 21q34 0 56 -21.5t22 -52.5q0 -46 -39 -73.5t-113 -50.5l-29 -9q20 -2 36 -19.5t28 -44t19.5 -57t10.5 -57.5l27 -2l58 85l12 -10
q-15 -33 -34.5 -63t-40.5 -52t-42.5 -35t-41.5 -13z" />
    <glyph glyph-name="l" unicode="l" horiz-adv-x="281" 
d="M104 -14q-8 0 -24 8.5t-31 20.5t-25.5 25.5t-7.5 23.5l149 528q2 11 0 19.5t-9 10.5l-72 10l4 13l231 28l-171 -598l42 -6l71 86l9 -9q-18 -33 -40 -62.5t-44.5 -51t-43.5 -34t-38 -12.5z" />
    <glyph glyph-name="m" unicode="m" horiz-adv-x="845" 
d="M671 -14q-8 0 -23 8t-29.5 19t-25 24.5t-10.5 23.5q0 20 14.5 56t40.5 104q14 37 25 65t11 41q0 4 -5.5 8.5t-13 8.5t-16.5 6.5t-17 2.5q-18 0 -56 -56t-98 -184l-39 -115l-142 2l46 141q10 31 21 61.5t20 56.5t15 45t6 25q0 4 -5 8.5t-12.5 8t-16 5.5t-15.5 2
q-19 0 -55 -56t-96 -184l-37 -115l-141 2l52 161l54 205l-43 6l-61 -93l-11 10q15 33 34.5 63.5t40.5 53.5t41 36.5t37 13.5q8 0 24.5 -7t33 -18t28.5 -23.5t12 -23.5q0 -12 -5.5 -35.5t-14 -53t-20 -61.5t-23.5 -62l8 -1q18 36 37 73.5t37.5 69.5t35.5 57.5t30 37.5
q17 18 42 32.5t45 14.5q26 0 45.5 -8.5t32.5 -21t19.5 -27.5t6.5 -28t-6 -35t-15.5 -49t-21 -57t-22.5 -58l7 -1q19 39 39 76t38.5 69t35.5 56.5t30 36.5q17 18 42 32.5t45 14.5q26 0 46.5 -7.5t34.5 -19t21 -25t7 -26.5q0 -25 -13.5 -70.5t-33.5 -97.5q-6 -15 -15.5 -38
t-17.5 -45l-20 -52l42 -6l70 86l10 -9q-18 -33 -40 -62.5t-44.5 -51t-44 -34t-38.5 -12.5z" />
    <glyph glyph-name="n" unicode="n" horiz-adv-x="572" 
d="M397 -14q-8 0 -23 8t-29.5 19t-25 24.5t-10.5 23.5q0 20 14.5 56t39.5 104q14 37 25 65t11 41q0 4 -5 8.5t-12.5 8.5t-16 6.5t-15.5 2.5q-19 0 -56.5 -56t-97.5 -184l-36 -115l-143 2l52 161l54 205l-43 6l-61 -93l-11 10q15 33 34.5 63.5t40.5 53.5t41 36.5t37 13.5
q8 0 25 -7t33.5 -18t29 -23.5t12.5 -23.5q0 -12 -5.5 -35.5t-14 -53t-20 -61.5t-23.5 -62l7 -1q18 36 37.5 73.5t38.5 69.5t36 57.5t30 37.5q18 18 42.5 32.5t44.5 14.5q26 0 46 -7.5t34 -19t21 -25t7 -26.5q0 -25 -13.5 -70.5t-33.5 -97.5q-6 -15 -15.5 -38t-17.5 -45
l-20 -52l42 -6l70 86l10 -9q-18 -33 -40 -62.5t-44.5 -51t-44 -34t-38.5 -12.5z" />
    <glyph glyph-name="o" unicode="o" horiz-adv-x="469" 
d="M186 14q30 0 58.5 42.5t51.5 123.5q17 53 24 97.5t7 70.5q0 41 -13 60.5t-33 19.5q-26 0 -57 -42.5t-57 -133.5q-15 -50 -21 -93.5t-6 -66.5q0 -36 12 -57t34 -21zM201 -14q-41 0 -74.5 15t-57.5 42t-37 63.5t-13 79.5q0 52 20.5 100.5t54.5 86t78.5 60.5t92.5 23
q39 0 72 -15.5t58 -43.5t39 -66t14 -82q0 -51 -20 -98t-54 -84t-78.5 -59t-94.5 -22z" />
    <glyph glyph-name="p" unicode="p" horiz-adv-x="540" 
d="M254 10q23 0 44 21q20 20 37.5 53t30.5 71t20.5 77t7.5 70q0 38 -14.5 56t-35.5 18q-28 0 -62 -50t-73 -143q-3 -7 -8 -22t-10 -30.5t-8.5 -28.5t-3.5 -18q3 -12 10.5 -25.5t18 -24t22.5 -17.5t24 -7zM-100 -234l25 4q20 2 28 5.5t10 11.5l160 579l-43 5l-61 -92l-11 10
q15 33 34.5 63t40.5 53.5t41 37t37 13.5q8 0 24.5 -7t33 -18t28.5 -23t12 -23q0 -24 -7.5 -48t-15.5 -47h5q38 85 78 125.5t91 40.5q54 0 85 -41.5t31 -110.5q0 -55 -22 -111.5t-59 -102.5t-86.5 -75t-105.5 -29q-24 0 -48 14.5t-35 37.5h-5l-70 -252q-2 -7 8 -10.5t38 -5.5
l41 -4l2 -17h-287z" />
    <glyph glyph-name="q" unicode="q" horiz-adv-x="536" 
d="M190 73q29 0 60 35t72 111q3 7 8.5 19.5t11 25.5t9 24.5t3.5 15.5q-3 19 -11.5 36.5t-20.5 31t-25 22t-25 8.5q-6 0 -12 -3.5t-14 -11.5q-17 -17 -34 -47.5t-30.5 -65.5t-22 -71.5t-8.5 -66.5t10.5 -46.5t28.5 -16.5zM123 -234l41 4q26 2 34 6.5t10 12.5q4 15 13 47
t20.5 70.5l23 77t20.5 66.5q11 32 23 72t31 89h-5q-30 -53 -55.5 -94.5t-49 -70t-47.5 -43.5t-52 -15q-25 0 -46.5 8.5t-37.5 24t-25 37.5t-9 49q0 63 37 134.5t99 133.5q45 45 84 63t68 18q21 0 35.5 -9.5t23 -26t11.5 -38t0 -44.5h5l44 110l132 -3l-86 -230l-120 -428
q-2 -8 9.5 -11.5t32.5 -5.5l25 -4l3 -17h-295z" />
    <glyph glyph-name="r" unicode="r" horiz-adv-x="478" 
d="M18 1l51 160l54 205l-43 6l-61 -93l-11 10q15 33 34.5 63.5t40.5 53.5t41 36.5t37 13.5q8 0 25 -7t33.5 -18t29 -23.5t12.5 -23.5q0 -12 -5 -32.5t-13.5 -47t-19 -57.5t-22.5 -63h5l33 66t32.5 63t28.5 51t22 31q23 35 44 49t51 14q17 0 33 -6t28.5 -17.5t20.5 -28.5
t8 -38q0 -39 -22.5 -66.5t-56.5 -27.5q-25 0 -41 12.5t-22 30t-1 37t23 33.5l-31 10q-10 -4 -26.5 -27t-37.5 -58t-44 -79.5t-47 -92.5l-41 -142z" />
    <glyph glyph-name="s" unicode="s" horiz-adv-x="398" 
d="M157 -14q-31 0 -60 6t-51.5 18.5t-35.5 31.5t-13 45q0 33 18.5 55.5t50.5 22.5q25 0 41.5 -17t17.5 -43q1 -15 -5.5 -26t-21.5 -23q2 -4 9.5 -12.5t19.5 -16.5t27.5 -14t33.5 -6q25 3 42.5 23t17.5 45q0 12 -9 25.5t-23.5 27.5t-32.5 28.5t-36 29.5q-42 35 -65 64t-23 65
q0 31 14.5 57t39 44.5t57 29t68.5 10.5q29 0 56.5 -6t49 -17.5t35 -28.5t13.5 -39q0 -33 -17.5 -54t-46.5 -21t-47.5 19t-18.5 45q0 14 7.5 25t18.5 19q-4 4 -9 10.5t-13 12.5t-19.5 11t-28.5 5q-11 -2 -21.5 -9t-18.5 -16t-12.5 -20t-4.5 -21q0 -13 10 -27t25 -28t32 -27
t30 -24q18 -16 34.5 -32t30 -33t21.5 -34.5t8 -36.5q0 -30 -15.5 -56t-41.5 -45.5t-61.5 -30.5t-76.5 -11z" />
    <glyph glyph-name="t" unicode="t" horiz-adv-x="339" 
d="M145 -14q-18 0 -39 8t-39 19.5t-29.5 25t-10.5 23.5q0 4 5.5 25.5t14 52t18.5 66.5t19.5 69t17 59.5t11.5 37.5l-82 4l19 53l82 11l41 130h131l-37 -132l102 -1l-10 -60h-109l-91 -301l69 -6l63 85l10 -9q-16 -33 -35 -62.5t-38.5 -51t-40.5 -34t-42 -12.5z" />
    <glyph glyph-name="u" unicode="u" horiz-adv-x="572" 
d="M408 -14q-8 0 -24 8t-31.5 19.5t-27.5 24.5t-12 24q0 12 5.5 35.5t14.5 52.5t20 61t23 60l-7 2q-19 -37 -39 -74t-38.5 -70t-35.5 -58t-30 -38q-18 -17 -42.5 -31.5t-44.5 -14.5q-26 0 -46 7.5t-34 19.5t-21 26.5t-7 27.5q0 24 13.5 68.5t33.5 96.5q8 20 16.5 43.5
t16.5 43.5q9 24 18 46l-43 6l-65 -93l-11 10q17 33 38 63.5t42.5 53.5t43 36.5t38.5 13.5q8 0 23.5 -8.5t30.5 -21t26 -26.5t11 -25q-1 -10 -4.5 -22t-10 -30t-16 -42.5t-22.5 -58.5q-14 -37 -24.5 -64t-10.5 -40q0 -4 5 -9t12 -9.5t16 -7.5t16 -3q18 0 56 56t99 184l38 116
l142 -2l-54 -161l-56 -208l42 -7l64 86l10 -9q-16 -33 -36.5 -62t-41.5 -50t-41.5 -33.5t-37.5 -12.5z" />
    <glyph glyph-name="v" unicode="v" horiz-adv-x="455" 
d="M163 -14q-24 0 -46.5 8.5t-40 22t-28 31t-10.5 35.5q0 21 16 50t40.5 62t54 67.5t55.5 67.5l-146 19l-42 -70l-12 10q16 33 32 64t32.5 54t33 37t31.5 14q10 0 27.5 -2.5t35 -7t30.5 -12t13 -17.5q0 -16 -8.5 -49.5t-19 -71.5t-19 -75.5t-8.5 -62.5q0 -24 7 -39.5
t18.5 -25.5t25 -14t26.5 -4q11 0 25 12t28.5 31.5t29 44t26.5 50t20.5 50t11.5 43.5q-16 -4 -33 -1t-31 13t-23 25.5t-9 35.5q0 29 20.5 52.5t57.5 23.5q33 0 56 -21t23 -62q0 -26 -12 -62t-32 -75.5t-47.5 -79t-57.5 -72.5q-33 -40 -72.5 -69.5t-78.5 -29.5z" />
    <glyph glyph-name="w" unicode="w" horiz-adv-x="662" 
d="M131 -14q-48 0 -75 26t-27 65q0 19 10 42.5t25.5 48.5t34.5 50t37 47t32.5 38.5t20.5 25.5l-128 20l-41 -70l-12 10q15 33 31.5 64t33 54t32.5 37t32 14q10 0 28 -3.5t35.5 -8.5t30 -12t11.5 -15q-4 -18 -17.5 -49.5t-27 -69t-24.5 -76.5t-11 -71q0 -19 5.5 -32.5
t14 -21.5t18.5 -11.5t20 -3.5q18 0 43 25.5t49.5 61t46.5 74t35 65.5q1 2 -11.5 5t-27.5 11.5t-27.5 22.5t-12.5 37q0 30 21.5 50.5t52.5 20.5q32 0 53.5 -21.5t21.5 -50.5q0 -18 -6.5 -32.5t-16.5 -29.5t-22 -32.5t-22 -41.5q-9 -20 -12 -36.5t-3 -33.5q0 -26 9.5 -44
t23.5 -29.5t31 -16.5t33 -5q25 0 51 27.5t46.5 66t33 80t10.5 68.5q-10 -8 -28 -10t-36 4t-31 21.5t-13 41.5q0 32 20 53t50 21q38 0 60 -27t22 -72q0 -34 -10 -71t-26.5 -73.5t-38 -70t-45.5 -60.5q-15 -19 -31.5 -36.5t-33 -31t-32 -21.5t-28.5 -8q-24 0 -41 8.5t-28 22
t-16 30t-5 32.5q0 11 4 28t10 36.5t13.5 40t14.5 38.5q-28 -48 -57 -91t-59 -75.5t-61 -51t-63 -18.5z" />
    <glyph glyph-name="x" unicode="x" horiz-adv-x="514" 
d="M54 -14q-28 0 -52.5 19t-24.5 55q0 33 20 54t46 21q20 0 32.5 -8.5t18 -21.5t4 -28t-9.5 -28q0 -2 7 -4t9 -2q7 0 18 11t24 31t27 47.5t26 60.5q-6 23 -15.5 52.5t-19.5 55.5t-20.5 43.5t-19.5 17.5q3 0 -2.5 0.5t-13.5 0.5h-22l-54 -82l-12 9q15 32 32.5 62t36.5 53
t39.5 37t39.5 14q58 0 89 -45t48 -125h5q17 44 32.5 76.5t32 53.5t36 31t44.5 10q28 0 52.5 -19t24.5 -55q0 -34 -20 -54.5t-46 -20.5q-20 0 -32.5 8.5t-18 21.5t-4 28.5t9.5 28.5q0 2 -7.5 3.5t-8.5 1.5q-6 0 -16.5 -10.5t-23 -29.5t-25.5 -45t-25 -57q6 -24 14.5 -54.5
t18 -58t20 -46t19.5 -18.5h41l53 81l12 -9q-15 -32 -31.5 -62t-34.5 -53.5t-37 -37.5t-39 -14q-59 0 -91.5 49t-50.5 131h-5q-19 -47 -35 -81t-32.5 -56t-36 -32.5t-46.5 -10.5z" />
    <glyph glyph-name="y" unicode="y" horiz-adv-x="483" 
d="M1 -201q-52 0 -82.5 25.5t-30.5 62.5q0 30 21.5 50.5t48.5 20.5q19 0 35.5 -9t25.5 -25t8 -38t-17 -47l35 -10q11 3 28.5 12t36 20.5t36.5 23.5l30 20q3 96 -3.5 182.5t-18.5 152t-28 104.5t-33 39l-15 3l-61 -107l-12 10q15 33 30 63.5t32 53.5t38.5 36.5t49.5 13.5
q38 0 63 -18.5t40.5 -67.5t21.5 -133.5t6 -216.5q1 -1 3 -1h3q23 25 46.5 66.5t43.5 86t33.5 86t16.5 66.5q-24 -14 -44.5 -13t-35 11t-23 25.5t-8.5 31.5q0 31 20 53t55 22q38 0 60.5 -28t22.5 -68q0 -38 -15.5 -84t-42 -95.5t-61.5 -99t-75 -94.5q-31 -36 -67.5 -70
t-74 -59.5t-74 -41t-68.5 -15.5z" />
    <glyph glyph-name="z" unicode="z" horiz-adv-x="438" 
d="M262 -24q-39 0 -63.5 19t-40.5 44t-27.5 48t-26.5 32h-6l-44 -133q-28 -1 -51 15.5t-23 44.5q0 17 9.5 33.5t26 30.5t38.5 23.5t48 12.5l211 161q-30 -1 -52.5 5t-42 19t-38.5 32t-42 44q0 1 -6.5 -5t-12.5 -13t-9.5 -13t0.5 -6q26 -5 39.5 -23t13.5 -41q0 -25 -18 -41
t-44 -17q-16 -1 -28 5t-20 16t-12 22t-4 24q0 27 19 51t46 43.5t56 31.5t48 15q38 0 60 -17.5t35 -39.5t20 -42.5t13 -26.5q1 0 1.5 0.5t1.5 0.5h2l36 125q13 0 26.5 -4t24 -11.5t17.5 -18t7 -23.5q0 -42 -31.5 -67t-79.5 -30l-210 -159q30 1 57 -7.5t51 -25t45.5 -39
t40.5 -50.5q0 -1 7.5 7t15 18t12.5 18.5t1 7.5q-34 1 -48 20.5t-14 42.5q0 25 17 41.5t41 16.5q17 1 29.5 -5.5t20 -16.5t11 -22.5t3.5 -23.5q0 -26 -13.5 -51.5t-35.5 -46.5t-50.5 -34.5t-57.5 -16.5z" />
    <glyph glyph-name="braceleft" unicode="{" horiz-adv-x="345" 
d="M261 -250q-53 7 -95 23.5t-70.5 40t-42 51.5t-8.5 60q3 23 16.5 50t29 53t28.5 49t15 38q3 19 -1 31.5t-17.5 21.5t-36.5 15t-59 11l-4 14l5 14q36 5 61 11t41 14.5t24.5 21.5t11.5 32q2 16 -3 43.5t-11.5 59t-11 63t-1.5 54.5q5 31 26.5 56.5t56.5 43.5t81.5 28
t100.5 10l1 -17q-62 -4 -95.5 -17.5t-38.5 -45.5q-3 -22 1.5 -51t10.5 -60.5t10.5 -62.5t0.5 -56q-4 -29 -18 -52t-40 -40t-66.5 -28.5t-98.5 -17.5q0 1 -0.5 -3t-0.5 -3q56 -6 93.5 -17t58.5 -28t28 -40t2 -52q-4 -25 -17.5 -54t-29.5 -58.5t-29.5 -56.5t-16.5 -49
q-5 -32 24.5 -51.5t87.5 -31.5l-3 -17v0z" />
    <glyph glyph-name="bar" unicode="|" horiz-adv-x="189" 
d="M84 648h22v-877h-22v877z" />
    <glyph glyph-name="braceright" unicode="}" horiz-adv-x="345" 
d="M-56 -233q62 4 95 17.5t38 45.5q4 22 -0.5 51.5t-10.5 61t-10.5 62.5t-1.5 56q5 29 18.5 51.5t40 40t66.5 28.5t98 17v7q-56 6 -93 17t-58 28t-27.5 40t-1.5 52q4 25 17.5 54t29.5 58t29.5 56.5t16.5 48.5q5 32 -24.5 51.5t-87.5 31.5l2 17q53 -7 95 -23.5t70.5 -40
t42.5 -51.5t9 -60q-3 -23 -17 -50t-29.5 -52.5t-28.5 -48.5t-15 -39q-3 -19 1.5 -31.5t18.5 -21.5t37.5 -15t57.5 -11l4 -13l-6 -15q-37 -5 -62.5 -11t-41 -15t-23 -21.5t-10.5 -31.5q-3 -15 2 -42.5t11.5 -59.5t11 -63t1.5 -54q-4 -32 -26 -57.5t-56.5 -43.5t-81 -28
t-100.5 -10z" />
    <glyph glyph-name="asciitilde" unicode="~" horiz-adv-x="406" 
d="M290 150q-23 0 -48 10t-49.5 22.5t-46 22.5t-38.5 10q-14 0 -25 -10t-23 -46h-11.5t-11.5 -1q10 42 20.5 69.5t24 44t30.5 23t39 6.5q23 0 47.5 -10t48 -22.5t45 -22.5t37.5 -10q14 0 27 10t26 46h10t11 1q-10 -42 -21 -69.5t-23.5 -44t-29 -23t-39.5 -6.5z" />
    <glyph glyph-name="nonbreakingspace" unicode="&#xa0;" horiz-adv-x="152" 
 />
    <glyph glyph-name="exclamdown" unicode="&#xa1;" horiz-adv-x="293" 
d="M209 488q-30 0 -52.5 22.5t-22.5 52.5q0 31 22.5 53t52.5 22q31 0 53 -21.5t22 -53.5q0 -31 -22 -53t-53 -22zM95 -13q-26 3 -41 10.5t-22 18.5t-6 24.5t7 28.5l140 349q3 6 9 6t6 -6l-1 -366q0 -14 -4.5 -27t-15 -22.5t-27 -14t-41.5 -1.5h-4v0z" />
    <glyph glyph-name="cent" unicode="&#xa2;" horiz-adv-x="410" 
d="M143 -11q-57 10 -93 53t-36 109q0 54 21.5 108t60 97.5t91.5 71t117 27.5q14 0 26 -3l66 162h25l-67 -167q31 -11 51 -33t20 -52q0 -36 -21.5 -60.5t-51.5 -24.5q-19 0 -33.5 7.5t-22.5 19.5q-27 -65 -48 -117q-9 -22 -17.5 -43.5t-15 -38t-11 -26.5l-4.5 -10
q15 -6 34 -6q27 0 58 20t69 74l12 -10q-44 -84 -93.5 -122t-108.5 -38h-4l-59 -146h-25l60 148v0zM284 341q0 14 6 27.5t16 23.5l8 20q-9 6 -18 10t-16 4q-9 0 -22.5 -5.5t-24.5 -16.5q-15 -15 -29.5 -41t-26.5 -59t-19.5 -70t-7.5 -73q0 -53 30 -80l104 256v4z" />
    <glyph glyph-name="sterling" unicode="&#xa3;" horiz-adv-x="574" 
d="M166 67q-32 21 -61 37.5t-58 16.5q-25 0 -42.5 -18t-17.5 -44q0 -20 17 -36.5t42 -16.5q29 0 61 16.5t59 44.5zM78 290l3 23h111q-11 25 -20 50.5t-9 51.5q0 50 22 90t59 69t85.5 44.5t101.5 15.5q76 0 121 -27.5t45 -72.5q0 -32 -19 -54t-54 -22q-28 0 -45 15
t-21.5 36.5t2.5 45t25 39.5q-5 8 -20.5 14.5t-32.5 6.5q-36 0 -66.5 -22.5t-41.5 -72.5q-5 -21 -4 -44.5t3 -49t3.5 -54t-2.5 -59.5h130l3 -23h-137q-4 -17 -9.5 -35.5t-14.5 -37.5q-17 -38 -41 -76q51 -16 99.5 -30t86.5 -14q18 0 31 4.5t23.5 16.5t19.5 32t17 51l16 -3
q-8 -41 -23.5 -79t-38.5 -67t-53.5 -46t-68.5 -17q-55 0 -99 20.5t-81 45.5q-32 -29 -67.5 -47.5t-70.5 -18.5t-57 21t-22 51q0 21 9 41.5t26 36t42.5 25t58.5 9.5q26 0 55.5 -6t61.5 -16q8 24 8 45q0 24 -7.5 47.5t-18.5 46.5h-124z" />
    <glyph glyph-name="currency" unicode="&#xa4;" horiz-adv-x="530" 
d="M299 -12q-54 0 -95.5 19t-70 51.5t-44 76.5t-19.5 94h-63l3 23h59v14q1 23 3.5 46t8.5 46h-50l3 23h54q18 52 49.5 98t74.5 80t95 53.5t111 19.5q34 0 61.5 -9t47 -23.5t30 -34t10.5 -40.5q0 -30 -20.5 -53t-55.5 -23q-28 0 -44.5 15t-21 37t4 47t30.5 45q-7 5 -15.5 11
t-34.5 6q-30 0 -57 -18.5t-50 -49.5t-40.5 -72.5t-27.5 -88.5h191l3 -23h-200q-6 -40 -6 -82v-12t1 -12h178l3 -23h-180q10 -76 48.5 -120.5t106.5 -44.5q72 0 123 62l10 -8q-37 -61 -92.5 -95.5t-121.5 -34.5z" />
    <glyph glyph-name="yen" unicode="&#xa5;" horiz-adv-x="634" 
d="M67 280v22h177l-81 215q-8 23 -15 38.5t-14.5 25t-17 14.5t-24.5 8l-21 4l-1 18h327l-4 -18l-15 -2q-43 -5 -53 -21.5t-1 -42.5l72 -218l5 -1l88 119q37 50 57 81t22.5 48t-12 24.5t-47.5 10.5l-21 2l-1 18h232l-3 -18l-27 -4q-21 -3 -36.5 -10.5t-34 -25.5t-44 -50.5
t-66.5 -86.5l-93 -127v-1h185l-2 -22h-188q1 0 -2.5 -16.5t-7.5 -36.5q-4 -24 -11 -54h190l3 -22h-197l-22 -111q-1 -7 7 -10.5t37 -6.5l34 -6l2 -17h-329l3 17l45 6q22 2 32 7.5t11 11.5l21 109h-179l3 22h180l22 107h-185z" />
    <glyph glyph-name="section" unicode="&#xa7;" horiz-adv-x="453" 
d="M330 189q39 19 39 54q0 17 -8 31t-22.5 26.5t-34.5 24.5t-43 25q-28 15 -56.5 32t-49.5 37q-22 -10 -31 -24t-9 -31q0 -33 30.5 -56.5t78.5 -49.5q28 -17 56.5 -33t49.5 -36zM178 -33q-73 0 -114.5 25t-41.5 65q0 26 19 46t48 20q22 0 38 -11.5t23.5 -28.5t4.5 -37
t-20 -38q14 -9 31.5 -14.5t30.5 -5.5q30 0 50.5 19.5t20.5 44.5q0 14 -9.5 27t-24.5 25t-35 24t-41 24q-24 14 -48 28.5t-43.5 32t-31.5 38t-12 45.5q1 47 35.5 80.5t84.5 52.5q-12 14 -19 29.5t-7 35.5q0 33 16 60t42.5 46t59.5 29.5t67 10.5q73 0 110.5 -25t37.5 -64
q0 -27 -19 -47.5t-47 -20.5q-22 0 -37.5 11.5t-21.5 29t-2 37.5t20 38q-11 8 -29 14t-30 6q-33 0 -50.5 -20t-17.5 -43q0 -15 9 -28t24.5 -25.5t35.5 -24t41 -23.5q24 -13 47.5 -28t43 -32.5t31.5 -38t12 -45.5q0 -23 -9.5 -43t-26 -36.5t-38 -30t-46.5 -22.5
q12 -14 19.5 -30t7.5 -36q0 -33 -16.5 -59.5t-43.5 -46t-61 -30t-68 -10.5z" />
    <glyph glyph-name="dieresis" unicode="&#xa8;" horiz-adv-x="410" 
d="M164 509q-31 0 -49 20.5t-18 46.5t18 47t49 21q32 0 49.5 -21t17.5 -47t-17.5 -46.5t-49.5 -20.5zM378 509q-31 0 -49 20.5t-18 46.5t18 47t49 21q32 0 49.5 -21t17.5 -47t-17.5 -46.5t-49.5 -20.5z" />
    <glyph glyph-name="copyright" unicode="&#xa9;" horiz-adv-x="733" 
d="M398 113q-53 0 -94 16t-68.5 43.5t-41.5 63t-14 74.5q0 41 15.5 77.5t44 63.5t70 43t92.5 16q30 0 54 -6.5t39 -14.5l45 13l4 -131h-20l-53 103q-25 19 -68 19q-57 0 -89 -47.5t-32 -131.5q0 -41 9 -75t24.5 -58.5t37.5 -38t48 -13.5q39 0 65 17.5t43 49.5l25 61l21 -1
l-17 -120l-27 1q-9 -4 -22.5 -8.5t-29 -8t-31.5 -5.5t-30 -2zM385 -8q66 0 123.5 25.5t100.5 69t67.5 101.5t24.5 124t-24.5 124.5t-67.5 102.5t-100.5 69.5t-123.5 25.5t-124 -25.5t-100.5 -69.5t-67.5 -102.5t-25 -124.5t25 -124t67.5 -101.5t100.5 -69t124 -25.5z
M385 -28q-70 0 -132 26.5t-108.5 73t-73 108.5t-26.5 132q0 71 26.5 133t73 108.5t108.5 73.5t132 27t132 -27t108 -73.5t72.5 -108.5t26.5 -133q0 -70 -26.5 -132t-72.5 -108.5t-108 -73t-132 -26.5z" />
    <glyph glyph-name="ordfeminine" unicode="&#xaa;" horiz-adv-x="430" 
d="M205 342q20 0 43.5 25.5t56.5 88.5q3 6 7 15t7.5 19t6.5 18t3 11q-8 28 -27 51t-39 23q-8 0 -19 -11t-24 -34t-23.5 -50.5t-17.5 -56.5t-7 -52q0 -24 9 -35.5t24 -11.5zM152 276q-36 0 -61.5 23.5t-26.5 65.5q0 49 27 104.5t75 103.5q35 36 67.5 49.5t55.5 13.5
q32 0 43.5 -27.5t6.5 -63.5h3l33 85l102 -5l-59 -169l-37 -112l36 -5l50 71l8 -7q-13 -25 -29 -48.5t-33 -40.5t-33 -27.5t-29 -10.5q-7 0 -19 7t-23 17t-19 20t-8 17q0 16 9.5 41.5t29.5 78.5h-4q-49 -88 -85 -134.5t-80 -46.5z" />
    <glyph glyph-name="guillemotleft" unicode="&#xab;" horiz-adv-x="476" 
d="M11 209l3 33l258 161l4 -9l-139 -179l77 -163l-8 -11zM219 209l3 33l270 171l5 -9l-157 -189l90 -174l-8 -10z" />
    <glyph glyph-name="registered" unicode="&#xae;" horiz-adv-x="718" 
d="M370 321q38 1 58.5 21t20.5 62t-28 62t-68 19l-24 -1v-154q8 -4 21 -6t20 -3zM184 141l24 3q14 2 19.5 5t5.5 6v317q0 4 -5 6t-24 5l-19 4l-2 16h188q178 0 178 -98q0 -35 -25.5 -61t-68.5 -37l72 -114q10 -16 17.5 -25t15 -13.5t15.5 -6.5l20 -5l6 -3l2 -16h-148l-11 20
l-85 159q-5 2 -15 4t-15 4v-157q0 -4 4.5 -6t23.5 -4l21 -3l2 -17h-197zM385 -7q66 0 123.5 25t100.5 68.5t67.5 102t24.5 124.5t-24.5 124.5t-67.5 102.5t-100.5 69.5t-123.5 25.5t-124 -25.5t-100.5 -69.5t-67.5 -102.5t-25 -124.5t25 -124.5t67.5 -102t100.5 -68.5
t124 -25zM385 -27q-70 0 -132 26.5t-108.5 73t-73 108.5t-26.5 132q0 71 26.5 133t73 108.5t108.5 73t132 26.5q71 0 132.5 -26.5t107.5 -73t72.5 -108.5t26.5 -133q0 -70 -26.5 -132t-72.5 -108.5t-107.5 -73t-132.5 -26.5z" />
    <glyph glyph-name="macron" unicode="&#xaf;" horiz-adv-x="378" 
d="M123 595h271l-15 -65h-277z" />
    <glyph glyph-name="degree" unicode="&#xb0;" horiz-adv-x="321" 
d="M213 381q27 0 48.5 9.5t36.5 26.5t23.5 39.5t8.5 47.5q0 48 -30.5 82t-81.5 34q-27 0 -49 -10t-37.5 -27t-24 -39.5t-8.5 -47.5q0 -49 31.5 -82t82.5 -33zM212 360q-30 0 -55.5 10.5t-43.5 28.5t-28 43t-10 54t10.5 55.5t29.5 46.5t45.5 32t58.5 12q30 0 55 -10.5
t43 -28.5t28 -42.5t10 -53.5q0 -30 -10.5 -56.5t-29.5 -47t-45 -32t-58 -11.5z" />
    <glyph glyph-name="plusminus" unicode="&#xb1;" horiz-adv-x="370" 
d="M-1 0q-1 0 0 3.5t2 7.5t3 10l30 4q22 2 33 5t12 12l77 400q1 13 -44 16l-27 4l1 21h300l-2 -10q-1 -4 -3 -11l-30 -4q-22 -2 -32.5 -5.5t-12.5 -12.5l-77 -399q-1 -12 45 -16l25 -4v-21h-300v0z" />
    <glyph glyph-name="acute" unicode="&#xb4;" horiz-adv-x="420" 
d="M322 684h144l-257 -184h-22z" />
    <glyph glyph-name="paragraph" unicode="&#xb6;" horiz-adv-x="446" 
d="M368 237q-5 0 -10.5 -0.5t-10.5 -0.5q-61 0 -113.5 13t-90.5 37.5t-60 59t-22 76.5q0 95 67 149.5t211 54.5h131l-124 -657h-29z" />
    <glyph glyph-name="periodcentered" unicode="&#xb7;" horiz-adv-x="230" 
d="M118 164q-32 0 -54.5 23t-22.5 56q0 32 22.5 55t54.5 23t55 -23.5t23 -54.5q0 -16 -6.5 -30.5t-17 -25t-24.5 -17t-30 -6.5z" />
    <glyph glyph-name="cedilla" unicode="&#xb8;" horiz-adv-x="403" 
d="M8 -251q88 8 129 24.5t41 51.5q0 15 -8.5 25.5t-22 17t-30 9.5t-32.5 3q-38 0 -61 -6l1 13l139 117h26l-76 -63q32 1 59 -5t46.5 -17.5t30 -28t10.5 -35.5q0 -35 -22 -58t-57.5 -36.5t-80.5 -18.5t-90 -5z" />
    <glyph glyph-name="ordmasculine" unicode="&#xba;" horiz-adv-x="366" 
d="M199 295q48 0 86 126q12 42 17.5 77t5.5 55q0 32 -10 47t-25 15q-20 0 -44 -33t-44 -103q-12 -39 -17 -73t-5 -51q0 -29 9.5 -44.5t26.5 -15.5zM211 273q-31 0 -57 11.5t-44.5 32.5t-28.5 49t-10 61q0 40 16 77.5t42 67t60 47t71 17.5q30 0 56 -12t44.5 -33.5t29.5 -51
t11 -63.5q0 -39 -15.5 -75.5t-41.5 -65t-60.5 -45.5t-72.5 -17z" />
    <glyph glyph-name="guillemotright" unicode="&#xbb;" horiz-adv-x="474" 
d="M197 49l139 179l-76 164l8 10l194 -167l-3 -32l-258 -163zM-22 39l155 189l-89 174l7 10l205 -177l-3 -32l-271 -173z" />
    <glyph glyph-name="questiondown" unicode="&#xbf;" horiz-adv-x="361" 
d="M261 488q-30 0 -52.5 22.5t-22.5 52.5q0 31 22.5 53t52.5 22q31 0 53 -21.5t22 -53.5q0 -31 -22 -53t-53 -22zM214 -15q-42 0 -77.5 16.5t-60.5 44.5t-39 64.5t-14 76.5q0 37 8.5 64t23.5 45.5t35.5 30t45.5 17.5q35 7 56 12.5t32.5 11t15 11.5t3.5 13q0 11 -7 22t-22 25
l24 2q29 -23 47.5 -54t18.5 -60q0 -22 -11.5 -38t-31 -27t-46.5 -18.5t-59 -12.5q-58 -9 -78.5 -20.5t-20.5 -25.5q0 -15 12 -28.5t33.5 -24t51.5 -17t66 -6.5q17 0 31 1t26 3q26 -23 26 -52q0 -32 -23 -54t-66 -22z" />
    <glyph glyph-name="Agrave" unicode="&#xc0;" horiz-adv-x="651" 
d="M175 240l-33 -65q-25 -46 -39 -74.5t-14.5 -45t14 -23.5t44.5 -11l19 -3l2 -18h-223l3 18l20 3q24 3 39.5 9t31 24t35 53t51.5 96l165 317l-2 46q15 2 34 9t38 17.5t35 23.5t26 27h23l72 -513q5 -33 11.5 -53t14.5 -32t19 -16.5t24 -6.5l26 -4v-18h-335l3 18l24 2
q19 2 29.5 7t15 15.5t3.5 27.5t-5 43l-14 127h-157zM329 266l-25 221h-5l-111 -221h141zM215 851h136l80 -184h-25z" />
    <glyph glyph-name="Aacute" unicode="&#xc1;" horiz-adv-x="651" 
d="M175 240l-33 -65q-25 -46 -39 -74.5t-14.5 -45t14 -23.5t44.5 -11l19 -3l2 -18h-223l3 18l20 3q24 3 39.5 9t31 24t35 53t51.5 96l165 317l-2 46q15 2 34 9t38 17.5t35 23.5t26 27h23l72 -513q5 -33 11.5 -53t14.5 -32t19 -16.5t24 -6.5l26 -4v-18h-335l3 18l24 2
q19 2 29.5 7t15 15.5t3.5 27.5t-5 43l-14 127h-157zM329 266l-25 221h-5l-111 -221h141zM460 851h144l-257 -184h-22z" />
    <glyph glyph-name="Acircumflex" unicode="&#xc2;" horiz-adv-x="651" 
d="M175 240l-33 -65q-25 -46 -39 -74.5t-14.5 -45t14 -23.5t44.5 -11l19 -3l2 -18h-223l3 18l20 3q24 3 39.5 9t31 24t35 53t51.5 96l165 317l-2 46q15 2 34 9t38 17.5t35 23.5t26 27h23l72 -513q5 -33 11.5 -53t14.5 -32t19 -16.5t24 -6.5l26 -4v-18h-335l3 18l24 2
q19 2 29.5 7t15 15.5t3.5 27.5t-5 43l-14 127h-157zM329 266l-25 221h-5l-111 -221h141zM398 850h49l91 -191h-25l-106 90h-2l-146 -90h-25z" />
    <glyph glyph-name="Atilde" unicode="&#xc3;" horiz-adv-x="651" 
d="M175 240l-33 -65q-25 -46 -39 -74.5t-14.5 -45t14 -23.5t44.5 -11l19 -3l2 -18h-223l3 18l20 3q24 3 39.5 9t31 24t35 53t51.5 96l165 317l-2 46q15 2 34 9t38 17.5t35 23.5t26 27h23l72 -513q5 -33 11.5 -53t14.5 -32t19 -16.5t24 -6.5l26 -4v-18h-335l3 18l24 2
q19 2 29.5 7t15 15.5t3.5 27.5t-5 43l-14 127h-157zM329 266l-25 221h-5l-111 -221h141zM473 673q-23 0 -48 10t-49.5 22.5t-46 22.5t-38.5 10q-14 0 -25 -10t-23 -46h-11.5t-11.5 -1q10 42 20.5 69.5t24 44t30.5 23t39 6.5q23 0 47.5 -10t48 -22.5t45 -22.5t37.5 -10
q14 0 27 10t26 46h10t11 1q-10 -42 -21 -69.5t-23.5 -44t-29 -23t-39.5 -6.5z" />
    <glyph glyph-name="Adieresis" unicode="&#xc4;" horiz-adv-x="651" 
d="M175 240l-33 -65q-25 -46 -39 -74.5t-14.5 -45t14 -23.5t44.5 -11l19 -3l2 -18h-223l3 18l20 3q24 3 39.5 9t31 24t35 53t51.5 96l165 317l-2 46q15 2 34 9t38 17.5t35 23.5t26 27h23l72 -513q5 -33 11.5 -53t14.5 -32t19 -16.5t24 -6.5l26 -4v-18h-335l3 18l24 2
q19 2 29.5 7t15 15.5t3.5 27.5t-5 43l-14 127h-157zM329 266l-25 221h-5l-111 -221h141zM298 676q-31 0 -49 20.5t-18 46.5t18 47t49 21q32 0 49.5 -21t17.5 -47t-17.5 -46.5t-49.5 -20.5zM512 676q-31 0 -49 20.5t-18 46.5t18 47t49 21q32 0 49.5 -21t17.5 -47t-17.5 -46.5
t-49.5 -20.5z" />
    <glyph glyph-name="Aring" unicode="&#xc5;" horiz-adv-x="651" 
d="M405 622q36 0 56 23t20 55q0 31 -20 55t-56 24q-35 0 -55.5 -24t-20.5 -55q0 -32 20.5 -55t55.5 -23zM175 240l-33 -65q-25 -46 -39 -74.5t-14.5 -45t14 -23.5t44.5 -11l19 -3l2 -18h-223l3 18l20 3q24 3 39.5 9t31 23.5t35 52.5t51.5 97l219 422q-16 14 -25 33t-9 42
q1 39 26 67.5t69 28.5q45 0 70 -28.5t25 -67.5q0 -29 -13.5 -51.5t-38.5 -33.5l68 -485q5 -33 11.5 -53t14.5 -32t19 -16.5t24 -6.5l26 -4v-18h-335l3 18l24 2q19 2 29.5 7t15 15.5t3.5 27.5t-5 43l-14 127h-157zM329 266l-24 221h-6l-111 -221h141z" />
    <glyph glyph-name="AE" unicode="&#xc6;" horiz-adv-x="922" 
d="M206 247l-53 -70q-37 -49 -57.5 -78t-24 -45t10 -22.5t43.5 -10.5l20 -3l3 -18h-224l3 18l18 3q24 4 41 10t36 23.5t45.5 50.5t70.5 91l267 348q19 28 9.5 42t-55.5 18l-38 4v17h586l-10 -216h-32l-5 29q-12 54 -31 86.5t-45 50.5t-60 23.5t-76 3.5l-33 -1l-52 -272l33 1
q45 2 78 21t50 60l16 36h24l-60 -265h-23v34q0 22 -4 38.5t-14.5 27.5t-30 17t-49.5 7l-24 2l-54 -283l70 -4q45 1 83.5 10t71.5 28.5t60.5 51t49.5 77.5l13 25h33l-60 -213h-578l2 10q1 4 3 9l49 6q44 6 44 19l38 203h-178zM389 272l52 281h-4l-212 -281h164z" />
    <glyph glyph-name="Ccedilla" unicode="&#xc7;" horiz-adv-x="685" 
d="M339 -11q-71 5 -125 31t-90 66t-54.5 91t-18.5 106q0 66 25 130t73 114t117.5 80.5t158.5 30.5q65 0 110.5 -14t72.5 -31l82 26l-22 -209l-34 1l-58 158q-24 20 -56.5 30.5t-58.5 10.5q-56 0 -100 -34t-74 -88t-45.5 -120t-15.5 -129q0 -110 44.5 -168.5t126.5 -58.5
q48 0 87.5 26t69.5 74l54 103l34 -1l-47 -206l-45 4q-13 -4 -33 -8.5t-43.5 -8t-49 -5.5t-51.5 -2h-9l-57 -47q32 1 59 -5t46.5 -17.5t30 -28t10.5 -35.5q0 -35 -22 -58t-57.5 -36.5t-80.5 -18.5t-90 -5l-2 12q88 8 129 24.5t41 51.5q0 15 -8.5 25.5t-22 17t-30 9.5t-32.5 3
q-38 0 -61 -6l1 13l121 102v0z" />
    <glyph glyph-name="Egrave" unicode="&#xc8;" horiz-adv-x="641" 
d="M-19 17l41 7q23 3 32 7.5t10 10.5l105 543q1 7 -6.5 10t-37.5 7l-30 6l-1 17h532l-9 -216h-33l-5 29q-12 54 -31 86.5t-45 50.5t-60 23.5t-76 3.5l-33 -1l-52 -272l33 1q45 2 78 21t50 60l16 36h25l-60 -265h-24v34q0 22 -4 38.5t-14.5 27.5t-29.5 17t-50 7l-24 2
l-54 -283l70 -4q45 1 83.5 10t71.5 28.5t60.5 51t49.5 77.5l13 25h33l-60 -213h-567zM239 851h136l80 -184h-25z" />
    <glyph glyph-name="Eacute" unicode="&#xc9;" horiz-adv-x="641" 
d="M-19 17l41 7q23 3 32 7.5t10 10.5l105 543q1 7 -6.5 10t-37.5 7l-30 6l-1 17h532l-9 -216h-33l-5 29q-12 54 -31 86.5t-45 50.5t-60 23.5t-76 3.5l-33 -1l-52 -272l33 1q45 2 78 21t50 60l16 36h25l-60 -265h-24v34q0 22 -4 38.5t-14.5 27.5t-29.5 17t-50 7l-24 2
l-54 -283l70 -4q45 1 83.5 10t71.5 28.5t60.5 51t49.5 77.5l13 25h33l-60 -213h-567zM459 851h144l-257 -184h-22z" />
    <glyph glyph-name="Ecircumflex" unicode="&#xca;" horiz-adv-x="641" 
d="M-19 17l41 7q23 3 32 7.5t10 10.5l105 543q1 7 -6.5 10t-37.5 7l-30 6l-1 17h532l-9 -216h-33l-5 29q-12 54 -31 86.5t-45 50.5t-60 23.5t-76 3.5l-33 -1l-52 -272l33 1q45 2 78 21t50 60l16 36h25l-60 -265h-24v34q0 22 -4 38.5t-14.5 27.5t-29.5 17t-50 7l-24 2
l-54 -283l70 -4q45 1 83.5 10t71.5 28.5t60.5 51t49.5 77.5l13 25h33l-60 -213h-567zM399 850h49l91 -191h-25l-106 90h-2l-146 -90h-25z" />
    <glyph glyph-name="Edieresis" unicode="&#xcb;" horiz-adv-x="641" 
d="M-19 17l41 7q23 3 32 7.5t10 10.5l105 543q1 7 -6.5 10t-37.5 7l-30 6l-1 17h532l-9 -216h-33l-5 29q-12 54 -31 86.5t-45 50.5t-60 23.5t-76 3.5l-33 -1l-52 -272l33 1q45 2 78 21t50 60l16 36h25l-60 -265h-24v34q0 22 -4 38.5t-14.5 27.5t-29.5 17t-50 7l-24 2
l-54 -283l70 -4q45 1 83.5 10t71.5 28.5t60.5 51t49.5 77.5l13 25h33l-60 -213h-567zM281 676q-31 0 -49 20.5t-18 46.5t18 47t49 21q32 0 49.5 -21t17.5 -47t-17.5 -46.5t-49.5 -20.5zM495 676q-31 0 -49 20.5t-18 46.5t18 47t49 21q32 0 49.5 -21t17.5 -47t-17.5 -46.5
t-49.5 -20.5z" />
    <glyph glyph-name="Igrave" unicode="&#xcc;" horiz-adv-x="385" 
d="M-8 17l43 7q41 4 43 18l104 543q2 7 -5.5 10t-37.5 7l-35 6l-2 17h331l-4 -17l-43 -7q-40 -4 -43 -18l-104 -543q-1 -7 7 -10t37 -7l34 -6l1 -17h-329zM110 851h136l80 -184h-25z" />
    <glyph glyph-name="Iacute" unicode="&#xcd;" horiz-adv-x="385" 
d="M-8 17l43 7q41 4 43 18l104 543q2 7 -5.5 10t-37.5 7l-35 6l-2 17h331l-4 -17l-43 -7q-40 -4 -43 -18l-104 -543q-1 -7 7 -10t37 -7l34 -6l1 -17h-329zM359 851h144l-257 -184h-22z" />
    <glyph glyph-name="Icircumflex" unicode="&#xce;" horiz-adv-x="385" 
d="M-8 17l43 7q41 4 43 18l104 543q2 7 -5.5 10t-37.5 7l-35 6l-2 17h331l-4 -17l-43 -7q-40 -4 -43 -18l-104 -543q-1 -7 7 -10t37 -7l34 -6l1 -17h-329zM277 850h49l91 -191h-25l-106 90h-2l-146 -90h-25z" />
    <glyph glyph-name="Idieresis" unicode="&#xcf;" horiz-adv-x="385" 
d="M-8 17l43 7q41 4 43 18l104 543q2 7 -5.5 10t-37.5 7l-35 6l-2 17h331l-4 -17l-43 -7q-40 -4 -43 -18l-104 -543q-1 -7 7 -10t37 -7l34 -6l1 -17h-329zM166 676q-31 0 -49 20.5t-18 46.5t18 47t49 21q32 0 49.5 -21t17.5 -47t-17.5 -46.5t-49.5 -20.5zM380 676
q-31 0 -49 20.5t-18 46.5t18 47t49 21q32 0 49.5 -21t17.5 -47t-17.5 -46.5t-49.5 -20.5z" />
    <glyph glyph-name="Eth" unicode="&#xd0;" horiz-adv-x="711" 
d="M385 326l2 -24h-110l-50 -264l65 -15q54 1 98 31t74.5 81t47.5 119.5t17 146.5q0 94 -37 147t-122 53h-36l-52 -275h103zM38 302l4 24h77l50 259q1 7 -6.5 10t-37.5 7l-30 6l-1 17h282q80 0 140.5 -20.5t101.5 -57.5t62 -88.5t21 -111.5q0 -68 -27 -130.5t-79 -110.5
t-128 -77t-174 -29h-315l3 17l41 7q23 3 32 7.5t10 10.5l50 260h-76z" />
    <glyph glyph-name="Ntilde" unicode="&#xd1;" horiz-adv-x="702" 
d="M205 509h-4l-81 -401q-7 -42 5 -62.5t58 -23.5l29 -5l2 -17h-233l3 17l28 5q43 4 58 27.5t22 66.5l87 422q-15 30 -37.5 45.5t-42.5 17.5l-18 4l-2 20h256l228 -402h5l58 294q7 42 -5 62.5t-58 23.5l-29 5l-2 17h233l-4 -17l-27 -5q-43 -4 -58 -27.5t-22 -66.5l-105 -515
h-49zM515 673q-23 0 -48 10t-49.5 22.5t-46 22.5t-38.5 10q-14 0 -25 -10t-23 -46h-11.5t-11.5 -1q10 42 20.5 69.5t24 44t30.5 23t39 6.5q23 0 47.5 -10t48 -22.5t45 -22.5t37.5 -10q14 0 27 10t26 46h10t11 1q-10 -42 -21 -69.5t-23.5 -44t-29 -23t-39.5 -6.5z" />
    <glyph glyph-name="Ograve" unicode="&#xd2;" 
d="M352 11q33 0 61 17.5t51 48t41 71t30 87t18 96t6 96.5q0 38 -7.5 71t-23 58.5t-40.5 40t-61 14.5q-37 0 -66 -21.5t-52 -57t-39 -81t-26 -93t-15 -93.5t-5 -82q0 -35 6.5 -66.5t21.5 -55t39.5 -37t60.5 -13.5zM365 -14q-69 0 -126 23t-97.5 64t-63 96.5t-22.5 119.5
q0 68 26.5 130.5t73.5 111t112.5 77.5t144.5 29q70 0 128 -23.5t99.5 -65t64.5 -97t23 -120.5q0 -67 -26 -129.5t-74 -110.5t-115 -76.5t-148 -28.5zM271 851h136l80 -184h-25z" />
    <glyph glyph-name="Oacute" unicode="&#xd3;" 
d="M352 11q33 0 61 17.5t51 48t41 71t30 87t18 96t6 96.5q0 38 -7.5 71t-23 58.5t-40.5 40t-61 14.5q-37 0 -66 -21.5t-52 -57t-39 -81t-26 -93t-15 -93.5t-5 -82q0 -35 6.5 -66.5t21.5 -55t39.5 -37t60.5 -13.5zM365 -14q-69 0 -126 23t-97.5 64t-63 96.5t-22.5 119.5
q0 68 26.5 130.5t73.5 111t112.5 77.5t144.5 29q70 0 128 -23.5t99.5 -65t64.5 -97t23 -120.5q0 -67 -26 -129.5t-74 -110.5t-115 -76.5t-148 -28.5zM543 851h144l-257 -184h-22z" />
    <glyph glyph-name="Ocircumflex" unicode="&#xd4;" 
d="M352 11q33 0 61 17.5t51 48t41 71t30 87t18 96t6 96.5q0 38 -7.5 71t-23 58.5t-40.5 40t-61 14.5q-37 0 -66 -21.5t-52 -57t-39 -81t-26 -93t-15 -93.5t-5 -82q0 -35 6.5 -66.5t21.5 -55t39.5 -37t60.5 -13.5zM365 -14q-69 0 -126 23t-97.5 64t-63 96.5t-22.5 119.5
q0 68 26.5 130.5t73.5 111t112.5 77.5t144.5 29q70 0 128 -23.5t99.5 -65t64.5 -97t23 -120.5q0 -67 -26 -129.5t-74 -110.5t-115 -76.5t-148 -28.5zM466 850h49l91 -191h-25l-106 90h-2l-146 -90h-25z" />
    <glyph glyph-name="Otilde" unicode="&#xd5;" 
d="M352 11q33 0 61 17.5t51 48t41 71t30 87t18 96t6 96.5q0 38 -7.5 71t-23 58.5t-40.5 40t-61 14.5q-37 0 -66 -21.5t-52 -57t-39 -81t-26 -93t-15 -93.5t-5 -82q0 -35 6.5 -66.5t21.5 -55t39.5 -37t60.5 -13.5zM365 -14q-69 0 -126 23t-97.5 64t-63 96.5t-22.5 119.5
q0 68 26.5 130.5t73.5 111t112.5 77.5t144.5 29q70 0 128 -23.5t99.5 -65t64.5 -97t23 -120.5q0 -67 -26 -129.5t-74 -110.5t-115 -76.5t-148 -28.5zM532 673q-23 0 -48 10t-49.5 22.5t-46 22.5t-38.5 10q-14 0 -25 -10t-23 -46h-11.5t-11.5 -1q10 42 20.5 69.5t24 44
t30.5 23t39 6.5q23 0 47.5 -10t48 -22.5t45 -22.5t37.5 -10q14 0 27 10t26 46h10t11 1q-10 -42 -21 -69.5t-23.5 -44t-29 -23t-39.5 -6.5z" />
    <glyph glyph-name="Odieresis" unicode="&#xd6;" 
d="M352 11q33 0 61 17.5t51 48t41 71t30 87t18 96t6 96.5q0 38 -7.5 71t-23 58.5t-40.5 40t-61 14.5q-37 0 -66 -21.5t-52 -57t-39 -81t-26 -93t-15 -93.5t-5 -82q0 -35 6.5 -66.5t21.5 -55t39.5 -37t60.5 -13.5zM365 -14q-69 0 -126 23t-97.5 64t-63 96.5t-22.5 119.5
q0 68 26.5 130.5t73.5 111t112.5 77.5t144.5 29q70 0 128 -23.5t99.5 -65t64.5 -97t23 -120.5q0 -67 -26 -129.5t-74 -110.5t-115 -76.5t-148 -28.5zM358 676q-31 0 -49 20.5t-18 46.5t18 47t49 21q32 0 49.5 -21t17.5 -47t-17.5 -46.5t-49.5 -20.5zM572 676q-31 0 -49 20.5
t-18 46.5t18 47t49 21q32 0 49.5 -21t17.5 -47t-17.5 -46.5t-49.5 -20.5z" />
    <glyph glyph-name="Oslash" unicode="&#xd8;" 
d="M541 531q-15 36 -42.5 58t-72.5 22q-37 0 -66 -21.5t-51.5 -57.5t-38.5 -81.5t-26 -93t-15 -93.5t-5 -82q0 -41 9 -76zM394 297q-29 -40 -56.5 -78t-49 -68t-35 -48.5l-13.5 -18.5q14 -34 41 -54t72 -20q50 0 88 38.5t64.5 98.5t40 134t13.5 145q0 23 -2.5 43.5
t-8.5 39.5zM600 581q60 -42 94 -107.5t34 -143.5q0 -67 -26 -129.5t-74 -110t-115 -76t-148 -28.5q-48 0 -89 11t-76 31q-12 -17 -24.5 -34.5t-23.5 -32.5q-12 -18 -25 -34h-23l80 111q-61 41 -94.5 105.5t-33.5 144.5q0 68 26.5 130.5t73.5 111t112.5 77.5t144.5 29
q97 0 171 -45l71 98h23l-78 -108v0z" />
    <glyph glyph-name="Ugrave" unicode="&#xd9;" horiz-adv-x="706" 
d="M358 -20q-124 0 -193.5 51t-69.5 151q0 20 2 38.5t6 41.5q18 92 31 163q6 30 11.5 59.5t9.5 52t6.5 36t2.5 12.5q0 3 -0.5 5.5t-4.5 4.5t-13 3.5t-24 3.5l-31 6l-2 17h325l-4 -17l-40 -7q-23 -3 -32 -7.5t-11 -10.5l-61 -323q-9 -48 -9 -89q0 -68 38.5 -101t112.5 -33
q69 0 111.5 40.5t58.5 128.5l64 311q7 42 -6 63t-59 24l-30 4l-2 17h235l-4 -17l-28 -4q-42 -4 -57 -28t-21 -67l-65 -311q-20 -107 -83.5 -162.5t-163.5 -55.5zM292 851h136l80 -184h-25z" />
    <glyph glyph-name="Uacute" unicode="&#xda;" horiz-adv-x="706" 
d="M358 -20q-124 0 -193.5 51t-69.5 151q0 20 2 38.5t6 41.5q18 92 31 163q6 30 11.5 59.5t9.5 52t6.5 36t2.5 12.5q0 3 -0.5 5.5t-4.5 4.5t-13 3.5t-24 3.5l-31 6l-2 17h325l-4 -17l-40 -7q-23 -3 -32 -7.5t-11 -10.5l-61 -323q-9 -48 -9 -89q0 -68 38.5 -101t112.5 -33
q69 0 111.5 40.5t58.5 128.5l64 311q7 42 -6 63t-59 24l-30 4l-2 17h235l-4 -17l-28 -4q-42 -4 -57 -28t-21 -67l-65 -311q-20 -107 -83.5 -162.5t-163.5 -55.5zM557 851h144l-257 -184h-22z" />
    <glyph glyph-name="Ucircumflex" unicode="&#xdb;" horiz-adv-x="706" 
d="M358 -20q-124 0 -193.5 51t-69.5 151q0 20 2 38.5t6 41.5q18 92 31 163q6 30 11.5 59.5t9.5 52t6.5 36t2.5 12.5q0 3 -0.5 5.5t-4.5 4.5t-13 3.5t-24 3.5l-31 6l-2 17h325l-4 -17l-40 -7q-23 -3 -32 -7.5t-11 -10.5l-61 -323q-9 -48 -9 -89q0 -68 38.5 -101t112.5 -33
q69 0 111.5 40.5t58.5 128.5l64 311q7 42 -6 63t-59 24l-30 4l-2 17h235l-4 -17l-28 -4q-42 -4 -57 -28t-21 -67l-65 -311q-20 -107 -83.5 -162.5t-163.5 -55.5zM475 850h49l91 -191h-25l-106 90h-2l-146 -90h-25z" />
    <glyph glyph-name="Udieresis" unicode="&#xdc;" horiz-adv-x="706" 
d="M358 -20q-124 0 -193.5 51t-69.5 151q0 20 2 38.5t6 41.5q18 92 31 163q6 30 11.5 59.5t9.5 52t6.5 36t2.5 12.5q0 3 -0.5 5.5t-4.5 4.5t-13 3.5t-24 3.5l-31 6l-2 17h325l-4 -17l-40 -7q-23 -3 -32 -7.5t-11 -10.5l-61 -323q-9 -48 -9 -89q0 -68 38.5 -101t112.5 -33
q69 0 111.5 40.5t58.5 128.5l64 311q7 42 -6 63t-59 24l-30 4l-2 17h235l-4 -17l-28 -4q-42 -4 -57 -28t-21 -67l-65 -311q-20 -107 -83.5 -162.5t-163.5 -55.5zM358 676q-31 0 -49 20.5t-18 46.5t18 47t49 21q32 0 49.5 -21t17.5 -47t-17.5 -46.5t-49.5 -20.5zM572 676
q-31 0 -49 20.5t-18 46.5t18 47t49 21q32 0 49.5 -21t17.5 -47t-17.5 -46.5t-49.5 -20.5z" />
    <glyph glyph-name="Yacute" unicode="&#xdd;" horiz-adv-x="649" 
d="M122 17l44 7q41 4 43 18l45 233l-87 238q-9 24 -16 40.5t-15.5 26.5t-18.5 15t-25 8l-16 4l-1 18h329l-3 -18l-19 -3q-23 -2 -36 -7.5t-18.5 -14t-4.5 -20t6 -26.5l73 -222l5 -1l90 122q38 52 58 83.5t22.5 49.5t-12.5 25.5t-47 10.5l-23 3l-1 18h236l-4 -18l-25 -4
q-21 -3 -37 -10t-34.5 -26t-44.5 -52.5t-68 -89.5l-98 -133l-49 -252q-1 -7 7 -10t37 -7l33 -6v-17h-330zM525 851h144l-257 -184h-22z" />
    <glyph glyph-name="Thorn" unicode="&#xde;" horiz-adv-x="619" 
d="M299 167q33 0 60.5 14.5t48 39.5t32 58.5t11.5 71.5q0 54 -27.5 88t-76.5 39h-30l-58 -304q8 -2 18.5 -4.5t21.5 -2.5zM-16 0l2 10l2 10l40 6q23 3 32 7.5t11 10.5l104 539q1 7 -6 9.5t-38 7.5l-30 5l-2 20h323l-2 -10l-2 -10l-38 -6q-41 -6 -44 -18l-16 -81
q14 0 30 -0.5t17 -0.5q124 0 188.5 -46t64.5 -120q0 -43 -18.5 -78.5t-53.5 -60t-85 -38t-113 -13.5q-23 0 -49 2t-45 7l-23 -110q-1 -7 6.5 -10.5t37.5 -6.5l40 -5l1 -20h-334v0z" />
    <glyph glyph-name="germandbls" unicode="&#xdf;" horiz-adv-x="575" 
d="M408 417q65 -39 102.5 -98.5t37.5 -124.5q0 -45 -15 -83t-41 -66t-61.5 -43.5t-76.5 -15.5q-60 0 -93 27t-33 65q0 31 19.5 50.5t47.5 19.5q26 0 41 -14.5t19 -34.5t-4.5 -41t-30.5 -34q2 -5 12 -10t24 -5q33 0 52.5 33.5t19.5 91.5q0 32 -8.5 67t-25.5 69.5t-44 66.5
t-63 59l2 20q72 10 113 46t41 102q0 36 -19 61t-53 25q-23 0 -38.5 -12.5t-26.5 -38.5t-21 -66.5t-23 -96.5l-77 -348q-17 -78 -43 -135.5t-63 -95.5q-29 -28 -61.5 -42.5t-74.5 -14.5q-51 0 -81.5 24t-30.5 62q0 26 18.5 46t50.5 20q19 0 35 -10t24.5 -26t6.5 -36.5
t-18 -41.5l10 -4t9 -3t8 -1q12 4 22.5 18.5t21 44.5t22.5 78t27 118l48 283l-92 4l19 52l89 12q15 55 34.5 98.5t47.5 73.5t67 46t93 16q91 0 138.5 -40t47.5 -101q0 -50 -42.5 -80.5t-109.5 -35.5z" />
    <glyph glyph-name="agrave" unicode="&#xe0;" horiz-adv-x="551" 
d="M190 73q29 0 60 35t72 111q3 7 8.5 19.5t11 25.5t9 24.5t3.5 15.5q-3 19 -11.5 37t-20.5 31.5t-25 21.5t-25 8q-6 0 -12 -3.5t-14 -11.5q-17 -17 -34 -47.5t-30.5 -65.5t-22 -71.5t-8.5 -66.5t10.5 -46.5t28.5 -16.5zM382 -14q-10 0 -25.5 8.5t-30.5 20.5t-25.5 25
t-10.5 21q0 21 13 56.5t36 93.5h-5q-30 -53 -55.5 -94.5t-49 -70t-47.5 -43.5t-52 -15q-25 0 -46.5 8.5t-37.5 24t-25 37.5t-9 49q0 63 37 134.5t99 133.5q45 45 84 63t68 18q21 0 35.5 -9.5t23 -26t11.5 -37.5t0 -45h5l44 110l132 -3l-78 -207l-53 -163l45 -6l66 86l9 -9
q-16 -33 -36.5 -62.5t-42 -51t-42 -34t-37.5 -12.5zM213 684h136l80 -184h-25z" />
    <glyph glyph-name="aacute" unicode="&#xe1;" horiz-adv-x="551" 
d="M190 73q29 0 60 35t72 111q3 7 8.5 19.5t11 25.5t9 24.5t3.5 15.5q-3 19 -11.5 37t-20.5 31.5t-25 21.5t-25 8q-6 0 -12 -3.5t-14 -11.5q-17 -17 -34 -47.5t-30.5 -65.5t-22 -71.5t-8.5 -66.5t10.5 -46.5t28.5 -16.5zM382 -14q-10 0 -25.5 8.5t-30.5 20.5t-25.5 25
t-10.5 21q0 21 13 56.5t36 93.5h-5q-30 -53 -55.5 -94.5t-49 -70t-47.5 -43.5t-52 -15q-25 0 -46.5 8.5t-37.5 24t-25 37.5t-9 49q0 63 37 134.5t99 133.5q45 45 84 63t68 18q21 0 35.5 -9.5t23 -26t11.5 -37.5t0 -45h5l44 110l132 -3l-78 -207l-53 -163l45 -6l66 86l9 -9
q-16 -33 -36.5 -62.5t-42 -51t-42 -34t-37.5 -12.5zM423 684h144l-257 -184h-22z" />
    <glyph glyph-name="acircumflex" unicode="&#xe2;" horiz-adv-x="551" 
d="M190 73q29 0 60 35t72 111q3 7 8.5 19.5t11 25.5t9 24.5t3.5 15.5q-3 19 -11.5 37t-20.5 31.5t-25 21.5t-25 8q-6 0 -12 -3.5t-14 -11.5q-17 -17 -34 -47.5t-30.5 -65.5t-22 -71.5t-8.5 -66.5t10.5 -46.5t28.5 -16.5zM382 -14q-10 0 -25.5 8.5t-30.5 20.5t-25.5 25
t-10.5 21q0 21 13 56.5t36 93.5h-5q-30 -53 -55.5 -94.5t-49 -70t-47.5 -43.5t-52 -15q-25 0 -46.5 8.5t-37.5 24t-25 37.5t-9 49q0 63 37 134.5t99 133.5q45 45 84 63t68 18q21 0 35.5 -9.5t23 -26t11.5 -37.5t0 -45h5l44 110l132 -3l-78 -207l-53 -163l45 -6l66 86l9 -9
q-16 -33 -36.5 -62.5t-42 -51t-42 -34t-37.5 -12.5zM340 683h49l91 -191h-25l-106 90h-2l-146 -90h-25z" />
    <glyph glyph-name="atilde" unicode="&#xe3;" horiz-adv-x="551" 
d="M190 73q29 0 60 35t72 111q3 7 8.5 19.5t11 25.5t9 24.5t3.5 15.5q-3 19 -11.5 37t-20.5 31.5t-25 21.5t-25 8q-6 0 -12 -3.5t-14 -11.5q-17 -17 -34 -47.5t-30.5 -65.5t-22 -71.5t-8.5 -66.5t10.5 -46.5t28.5 -16.5zM382 -14q-10 0 -25.5 8.5t-30.5 20.5t-25.5 25
t-10.5 21q0 21 13 56.5t36 93.5h-5q-30 -53 -55.5 -94.5t-49 -70t-47.5 -43.5t-52 -15q-25 0 -46.5 8.5t-37.5 24t-25 37.5t-9 49q0 63 37 134.5t99 133.5q45 45 84 63t68 18q21 0 35.5 -9.5t23 -26t11.5 -37.5t0 -45h5l44 110l132 -3l-78 -207l-53 -163l45 -6l66 86l9 -9
q-16 -33 -36.5 -62.5t-42 -51t-42 -34t-37.5 -12.5zM425 506q-23 0 -48 10t-49.5 22.5t-46 22.5t-38.5 10q-14 0 -25 -10t-23 -46h-11.5t-11.5 -1q10 42 20.5 69.5t24 44t30.5 23t39 6.5q23 0 47.5 -10t48 -22.5t45 -22.5t37.5 -10q14 0 27 10t26 46h10t11 1
q-10 -42 -21 -69.5t-23.5 -44t-29 -23t-39.5 -6.5z" />
    <glyph glyph-name="adieresis" unicode="&#xe4;" horiz-adv-x="551" 
d="M190 73q29 0 60 35t72 111q3 7 8.5 19.5t11 25.5t9 24.5t3.5 15.5q-3 19 -11.5 37t-20.5 31.5t-25 21.5t-25 8q-6 0 -12 -3.5t-14 -11.5q-17 -17 -34 -47.5t-30.5 -65.5t-22 -71.5t-8.5 -66.5t10.5 -46.5t28.5 -16.5zM382 -14q-10 0 -25.5 8.5t-30.5 20.5t-25.5 25
t-10.5 21q0 21 13 56.5t36 93.5h-5q-30 -53 -55.5 -94.5t-49 -70t-47.5 -43.5t-52 -15q-25 0 -46.5 8.5t-37.5 24t-25 37.5t-9 49q0 63 37 134.5t99 133.5q45 45 84 63t68 18q21 0 35.5 -9.5t23 -26t11.5 -37.5t0 -45h5l44 110l132 -3l-78 -207l-53 -163l45 -6l66 86l9 -9
q-16 -33 -36.5 -62.5t-42 -51t-42 -34t-37.5 -12.5zM249 509q-31 0 -49 20.5t-18 46.5t18 47t49 21q32 0 49.5 -21t17.5 -47t-17.5 -46.5t-49.5 -20.5zM463 509q-31 0 -49 20.5t-18 46.5t18 47t49 21q32 0 49.5 -21t17.5 -47t-17.5 -46.5t-49.5 -20.5z" />
    <glyph glyph-name="aring" unicode="&#xe5;" horiz-adv-x="551" 
d="M190 73q29 0 60 35t72 111q3 7 8.5 19.5t11 25.5t9 24.5t3.5 15.5q-3 19 -11.5 37t-20.5 31.5t-25 21.5t-25 8q-6 0 -12 -3.5t-14 -11.5q-17 -17 -34 -47.5t-30.5 -65.5t-22 -71.5t-8.5 -66.5t10.5 -46.5t28.5 -16.5zM382 -14q-10 0 -25.5 8.5t-30.5 20.5t-25.5 25
t-10.5 21q0 21 13 56.5t36 93.5h-5q-30 -53 -55.5 -94.5t-49 -70t-47.5 -43.5t-52 -15q-25 0 -46.5 8.5t-37.5 24t-25 37.5t-9 49q0 63 37 134.5t99 133.5q45 45 84 63t68 18q21 0 35.5 -9.5t23 -26t11.5 -37.5t0 -45h5l44 110l132 -3l-78 -207l-53 -163l45 -6l66 86l9 -9
q-16 -33 -36.5 -62.5t-42 -51t-42 -34t-37.5 -12.5zM359 519q35 0 55.5 23t20.5 55t-20.5 55.5t-55.5 23.5q-36 0 -56 -23.5t-20 -55.5t20 -55t56 -23zM359 501q-45 0 -70 28.5t-25 67.5t25 67.5t70 28.5q44 0 69 -28.5t25 -67.5t-25 -67.5t-69 -28.5z" />
    <glyph glyph-name="ae" unicode="&#xe6;" horiz-adv-x="725" 
d="M466 231q69 25 109 55t40 82q0 26 -15 42t-33 16q-9 0 -15.5 -3.5t-14.5 -10.5q-10 -10 -21.5 -29t-21.5 -43t-18 -51.5t-13 -56.5l3 -1v0zM190 73q29 0 61 41.5t73 119.5q4 7 9 17t9.5 20.5t8 19.5t3.5 13q-3 19 -11.5 37t-20.5 31.5t-25 21.5t-25 8q-6 0 -12 -3.5
t-14 -11.5q-17 -17 -34 -47.5t-30.5 -65.5t-22 -71.5t-8.5 -66.5t10.5 -46.5t28.5 -16.5zM130 -12q-25 0 -46.5 8.5t-37.5 24t-25 37.5t-9 49q0 63 37 134.5t99 133.5q45 45 84 63t68 18q41 0 60 -35.5t15 -89.5q39 55 96.5 90t131.5 35q60 0 92.5 -28.5t32.5 -66.5
q0 -27 -16.5 -47t-50 -37t-83 -32.5t-115.5 -33.5q-3 -14 -4 -28.5t-1 -28.5q0 -42 19.5 -66.5t60.5 -24.5q29 0 64.5 20t73.5 75l12 -10q-45 -85 -97.5 -122.5t-113.5 -37.5q-35 0 -64.5 11.5t-51 33t-33.5 51t-13 65.5v15t1 16q-24 -43 -46.5 -78.5t-44.5 -60.5t-45 -39
t-50 -14z" />
    <glyph glyph-name="ccedilla" unicode="&#xe7;" horiz-adv-x="418" 
d="M159 -13q-63 5 -104 49.5t-41 115.5q0 53 21.5 107.5t60 98t91.5 71t117 27.5q25 0 47 -7t38.5 -19t26 -29t9.5 -38q0 -37 -21.5 -61.5t-51.5 -24.5q-31 0 -49.5 19.5t-18.5 44.5q0 21 13 40.5t30 25.5q-11 7 -24.5 13.5t-22.5 6.5q-16 0 -40 -22q-15 -15 -29.5 -41
t-26.5 -59t-19.5 -70t-7.5 -73q0 -46 21 -72.5t58 -26.5q28 0 57.5 20t67.5 75l12 -10q-42 -80 -87.5 -118t-100.5 -42l-56 -47q32 1 59 -5t46.5 -17.5t30 -28t10.5 -35.5q0 -35 -22 -58t-57.5 -36.5t-80.5 -18.5t-90 -5l-2 12q88 8 129 24.5t41 51.5q0 15 -8.5 25.5t-22 17
t-30 9.5t-32.5 3q-38 0 -61 -6l1 13l119 100v0z" />
    <glyph glyph-name="egrave" unicode="&#xe8;" horiz-adv-x="424" 
d="M165 231q28 9 55.5 22t49 30t34.5 38t13 47t-15 42t-32 16q-9 0 -16 -3.5t-13 -8.5q-11 -11 -23 -30t-23 -43t-19.5 -52t-13.5 -57l3 -1v0zM175 -13q-36 0 -65.5 12t-50.5 34t-33 52t-12 67q0 53 22 107.5t60.5 98t91 71t113.5 27.5q54 0 88.5 -26t34.5 -66
q0 -28 -18.5 -49.5t-53 -39t-82.5 -33t-108 -31.5q-3 -14 -4 -28.5t-1 -28.5q0 -41 22 -66t60 -25q29 0 63.5 20t72.5 75l12 -10q-45 -85 -98 -123t-114 -38zM107 684h136l80 -184h-25z" />
    <glyph glyph-name="eacute" unicode="&#xe9;" horiz-adv-x="424" 
d="M165 231q28 9 55.5 22t49 30t34.5 38t13 47t-15 42t-32 16q-9 0 -16 -3.5t-13 -8.5q-11 -11 -23 -30t-23 -43t-19.5 -52t-13.5 -57l3 -1v0zM175 -13q-36 0 -65.5 12t-50.5 34t-33 52t-12 67q0 53 22 107.5t60.5 98t91 71t113.5 27.5q54 0 88.5 -26t34.5 -66
q0 -28 -18.5 -49.5t-53 -39t-82.5 -33t-108 -31.5q-3 -14 -4 -28.5t-1 -28.5q0 -41 22 -66t60 -25q29 0 63.5 20t72.5 75l12 -10q-45 -85 -98 -123t-114 -38zM376 684h144l-257 -184h-22z" />
    <glyph glyph-name="ecircumflex" unicode="&#xea;" horiz-adv-x="424" 
d="M165 231q28 9 55.5 22t49 30t34.5 38t13 47t-15 42t-32 16q-9 0 -16 -3.5t-13 -8.5q-11 -11 -23 -30t-23 -43t-19.5 -52t-13.5 -57l3 -1v0zM175 -13q-36 0 -65.5 12t-50.5 34t-33 52t-12 67q0 53 22 107.5t60.5 98t91 71t113.5 27.5q54 0 88.5 -26t34.5 -66
q0 -28 -18.5 -49.5t-53 -39t-82.5 -33t-108 -31.5q-3 -14 -4 -28.5t-1 -28.5q0 -41 22 -66t60 -25q29 0 63.5 20t72.5 75l12 -10q-45 -85 -98 -123t-114 -38zM287 683h49l91 -191h-25l-106 90h-2l-146 -90h-25z" />
    <glyph glyph-name="edieresis" unicode="&#xeb;" horiz-adv-x="424" 
d="M165 231q28 9 55.5 22t49 30t34.5 38t13 47t-15 42t-32 16q-9 0 -16 -3.5t-13 -8.5q-11 -11 -23 -30t-23 -43t-19.5 -52t-13.5 -57l3 -1v0zM175 -13q-36 0 -65.5 12t-50.5 34t-33 52t-12 67q0 53 22 107.5t60.5 98t91 71t113.5 27.5q54 0 88.5 -26t34.5 -66
q0 -28 -18.5 -49.5t-53 -39t-82.5 -33t-108 -31.5q-3 -14 -4 -28.5t-1 -28.5q0 -41 22 -66t60 -25q29 0 63.5 20t72.5 75l12 -10q-45 -85 -98 -123t-114 -38zM188 509q-31 0 -49 20.5t-18 46.5t18 47t49 21q32 0 49.5 -21t17.5 -47t-17.5 -46.5t-49.5 -20.5zM402 509
q-31 0 -49 20.5t-18 46.5t18 47t49 21q32 0 49.5 -21t17.5 -47t-17.5 -46.5t-49.5 -20.5z" />
    <glyph glyph-name="igrave" unicode="&#xec;" horiz-adv-x="301" 
d="M122 -14q-8 0 -23 8t-30 19.5t-25.5 25t-10.5 23.5q0 4 4.5 19t11.5 36.5t16.5 48.5t18.5 55q22 65 50 145l-52 5l-60 -92l-11 10q15 33 34 63t39 53.5t40 37t37 13.5q8 0 26 -7t36.5 -17t32 -22t13.5 -23q0 -4 -4.5 -20t-12 -38.5t-16.5 -50.5t-19 -56q-23 -66 -53 -147
l42 -6l70 86l9 -9q-18 -33 -39 -62.5t-43 -51t-43 -34t-38 -12.5zM36 684h136l80 -184h-25z" />
    <glyph glyph-name="iacute" unicode="&#xed;" horiz-adv-x="301" 
d="M122 -14q-8 0 -23 8t-30 19.5t-25.5 25t-10.5 23.5q0 4 4.5 19t11.5 36.5t16.5 48.5t18.5 55q22 65 50 145l-52 5l-60 -92l-11 10q15 33 34 63t39 53.5t40 37t37 13.5q8 0 26 -7t36.5 -17t32 -22t13.5 -23q0 -4 -4.5 -20t-12 -38.5t-16.5 -50.5t-19 -56q-23 -66 -53 -147
l42 -6l70 86l9 -9q-18 -33 -39 -62.5t-43 -51t-43 -34t-38 -12.5zM285 684h144l-257 -184h-22z" />
    <glyph glyph-name="icircumflex" unicode="&#xee;" horiz-adv-x="301" 
d="M225 684h48l86 -190h-26l-99 89h-2l-138 -89h-26zM122 -14q-8 0 -23 8t-30 19.5t-25.5 25t-10.5 23.5q0 4 4.5 19t11.5 36.5t16.5 48.5t18.5 55q22 65 50 145l-52 5l-60 -92l-11 10q15 33 34 63t39 53.5t40 37t37 13.5q8 0 26 -7t36.5 -17t32 -22t13.5 -23q0 -4 -4.5 -20
t-12 -38.5t-16.5 -50.5t-19 -56q-23 -66 -53 -147l42 -6l70 86l9 -9q-18 -33 -39 -62.5t-43 -51t-43 -34t-38 -12.5z" />
    <glyph glyph-name="idieresis" unicode="&#xef;" horiz-adv-x="301" 
d="M122 -14q-8 0 -23 8t-30 19.5t-25.5 25t-10.5 23.5q0 4 4.5 19t11.5 36.5t16.5 48.5t18.5 55q22 65 50 145l-52 5l-60 -92l-11 10q15 33 34 63t39 53.5t40 37t37 13.5q8 0 26 -7t36.5 -17t32 -22t13.5 -23q0 -4 -4.5 -20t-12 -38.5t-16.5 -50.5t-19 -56q-23 -66 -53 -147
l42 -6l70 86l9 -9q-18 -33 -39 -62.5t-43 -51t-43 -34t-38 -12.5zM120 509q-31 0 -49 20.5t-18 46.5t18 47t49 21q32 0 49.5 -21t17.5 -47t-17.5 -46.5t-49.5 -20.5zM334 509q-31 0 -49 20.5t-18 46.5t18 47t49 21q32 0 49.5 -21t17.5 -47t-17.5 -46.5t-49.5 -20.5z" />
    <glyph glyph-name="eth" unicode="&#xf0;" horiz-adv-x="469" 
d="M186 14q30 0 58.5 42t51.5 123q17 54 24 98.5t7 69.5q0 41 -13 60.5t-33 19.5q-26 0 -57 -42.5t-57 -132.5q-15 -50 -21 -93.5t-6 -66.5q0 -36 12 -57t34 -21zM124 524q0 2 1 4t1 4t1 4q2 5 3 12l111 22q-37 40 -84 62l11 15q44 -11 80 -27t65 -36l119 24l-5 -24l-90 -18
q60 -51 87.5 -118.5t27.5 -146.5q0 -64 -20.5 -121.5t-55.5 -100.5t-80 -68t-95 -25q-41 0 -74.5 15t-57.5 42t-37 63.5t-13 79.5q0 52 20.5 100.5t54 86t77 60.5t89.5 23q17 0 31 -3.5t27 -9.5q-23 61 -60 107z" />
    <glyph glyph-name="ntilde" unicode="&#xf1;" horiz-adv-x="572" 
d="M397 -14q-8 0 -23 8t-29.5 19t-25 24.5t-10.5 23.5q0 20 14.5 56t39.5 104q14 37 25 65t11 41q0 4 -5 8.5t-12.5 8.5t-16 6.5t-15.5 2.5q-19 0 -56.5 -56t-97.5 -184l-36 -115l-143 2l52 161l54 205l-43 6l-61 -93l-11 10q15 33 34.5 63.5t40.5 53.5t41 36.5t37 13.5
q8 0 25 -7t33.5 -18t29 -23.5t12.5 -23.5q0 -12 -5.5 -35.5t-14 -53t-20 -61.5t-23.5 -62l7 -1q18 36 37.5 73.5t38.5 69.5t36 57.5t30 37.5q18 18 42.5 32.5t44.5 14.5q26 0 46 -7.5t34 -19t21 -25t7 -26.5q0 -25 -13.5 -70.5t-33.5 -97.5q-6 -15 -15.5 -38t-17.5 -45
l-20 -52l42 -6l70 86l10 -9q-18 -33 -40 -62.5t-44.5 -51t-44 -34t-38.5 -12.5zM433 506q-23 0 -48 10t-49.5 22.5t-46 22.5t-38.5 10q-14 0 -25 -10t-23 -46h-11.5t-11.5 -1q10 42 20.5 69.5t24 44t30.5 23t39 6.5q23 0 47.5 -10t48 -22.5t45 -22.5t37.5 -10q14 0 27 10
t26 46h10t11 1q-10 -42 -21 -69.5t-23.5 -44t-29 -23t-39.5 -6.5z" />
    <glyph glyph-name="ograve" unicode="&#xf2;" horiz-adv-x="469" 
d="M186 14q30 0 58.5 42.5t51.5 123.5q17 53 24 97.5t7 70.5q0 41 -13 60.5t-33 19.5q-26 0 -57 -42.5t-57 -133.5q-15 -50 -21 -93.5t-6 -66.5q0 -36 12 -57t34 -21zM201 -14q-41 0 -74.5 15t-57.5 42t-37 63.5t-13 79.5q0 52 20.5 100.5t54.5 86t78.5 60.5t92.5 23
q39 0 72 -15.5t58 -43.5t39 -66t14 -82q0 -51 -20 -98t-54 -84t-78.5 -59t-94.5 -22zM120 684h136l80 -184h-25z" />
    <glyph glyph-name="oacute" unicode="&#xf3;" horiz-adv-x="469" 
d="M186 14q30 0 58.5 42.5t51.5 123.5q17 53 24 97.5t7 70.5q0 41 -13 60.5t-33 19.5q-26 0 -57 -42.5t-57 -133.5q-15 -50 -21 -93.5t-6 -66.5q0 -36 12 -57t34 -21zM201 -14q-41 0 -74.5 15t-57.5 42t-37 63.5t-13 79.5q0 52 20.5 100.5t54.5 86t78.5 60.5t92.5 23
q39 0 72 -15.5t58 -43.5t39 -66t14 -82q0 -51 -20 -98t-54 -84t-78.5 -59t-94.5 -22zM386 684h144l-257 -184h-22z" />
    <glyph glyph-name="ocircumflex" unicode="&#xf4;" horiz-adv-x="469" 
d="M186 14q30 0 58.5 42.5t51.5 123.5q17 53 24 97.5t7 70.5q0 41 -13 60.5t-33 19.5q-26 0 -57 -42.5t-57 -133.5q-15 -50 -21 -93.5t-6 -66.5q0 -36 12 -57t34 -21zM201 -14q-41 0 -74.5 15t-57.5 42t-37 63.5t-13 79.5q0 52 20.5 100.5t54.5 86t78.5 60.5t92.5 23
q39 0 72 -15.5t58 -43.5t39 -66t14 -82q0 -51 -20 -98t-54 -84t-78.5 -59t-94.5 -22zM303 683h49l91 -191h-25l-106 90h-2l-146 -90h-25z" />
    <glyph glyph-name="otilde" unicode="&#xf5;" horiz-adv-x="469" 
d="M186 14q30 0 58.5 42.5t51.5 123.5q17 53 24 97.5t7 70.5q0 41 -13 60.5t-33 19.5q-26 0 -57 -42.5t-57 -133.5q-15 -50 -21 -93.5t-6 -66.5q0 -36 12 -57t34 -21zM201 -14q-41 0 -74.5 15t-57.5 42t-37 63.5t-13 79.5q0 52 20.5 100.5t54.5 86t78.5 60.5t92.5 23
q39 0 72 -15.5t58 -43.5t39 -66t14 -82q0 -51 -20 -98t-54 -84t-78.5 -59t-94.5 -22zM387 506q-23 0 -48 10t-49.5 22.5t-46 22.5t-38.5 10q-14 0 -25 -10t-23 -46h-11.5t-11.5 -1q10 42 20.5 69.5t24 44t30.5 23t39 6.5q23 0 47.5 -10t48 -22.5t45 -22.5t37.5 -10
q14 0 27 10t26 46h10t11 1q-10 -42 -21 -69.5t-23.5 -44t-29 -23t-39.5 -6.5z" />
    <glyph glyph-name="odieresis" unicode="&#xf6;" horiz-adv-x="469" 
d="M186 14q30 0 58.5 42.5t51.5 123.5q17 53 24 97.5t7 70.5q0 41 -13 60.5t-33 19.5q-26 0 -57 -42.5t-57 -133.5q-15 -50 -21 -93.5t-6 -66.5q0 -36 12 -57t34 -21zM201 -14q-41 0 -74.5 15t-57.5 42t-37 63.5t-13 79.5q0 52 20.5 100.5t54.5 86t78.5 60.5t92.5 23
q39 0 72 -15.5t58 -43.5t39 -66t14 -82q0 -51 -20 -98t-54 -84t-78.5 -59t-94.5 -22zM204 509q-31 0 -49 20.5t-18 46.5t18 47t49 21q32 0 49.5 -21t17.5 -47t-17.5 -46.5t-49.5 -20.5zM418 509q-31 0 -49 20.5t-18 46.5t18 47t49 21q32 0 49.5 -21t17.5 -47t-17.5 -46.5
t-49.5 -20.5z" />
    <glyph glyph-name="divide" unicode="&#xf7;" horiz-adv-x="558" 
d="M260 21q51 0 93 21.5t72 57.5t46.5 82.5t16.5 96.5q0 42 -13.5 76t-38 59t-58.5 38.5t-75 13.5q-51 0 -92.5 -21.5t-71.5 -57.5t-46.5 -83t-16.5 -98q0 -41 13.5 -75t38 -58.5t58.5 -38t74 -13.5zM259 -13q-48 0 -88.5 15.5t-70 44t-45.5 69t-16 90.5q0 60 20 113.5
t56 93.5t84.5 63t105.5 23q48 0 88.5 -15.5t70 -44t45.5 -69.5t16 -91q0 -60 -20 -113t-55.5 -93t-84.5 -63t-106 -23z" />
    <glyph glyph-name="oslash" unicode="&#xf8;" horiz-adv-x="469" 
d="M327 337q-52 -72 -93 -129q-18 -24 -34.5 -47.5t-29.5 -41.5t-21.5 -29l-8.5 -11q2 -30 14 -47.5t32 -17.5q30 0 58.5 42t51.5 123q15 48 22 90t9 68zM326 368q-4 30 -16 44.5t-29 14.5q-26 0 -57 -42.5t-57 -132.5q-12 -41 -18 -77.5t-8 -62.5zM381 411q31 -28 49 -69.5
t18 -92.5t-20 -98t-54 -84t-78.5 -59t-94.5 -22q-30 0 -56.5 8.5t-47.5 23.5q-17 -23 -35 -48.5t-34 -47.5q-18 -26 -37 -50h-23l114 158q-30 27 -46.5 67.5t-16.5 88.5q0 52 20.5 100.5t54.5 86t78.5 60.5t92.5 23q29 0 54 -8.5t47 -24.5l116 162h24l-125 -174v0z" />
    <glyph glyph-name="ugrave" unicode="&#xf9;" horiz-adv-x="572" 
d="M408 -14q-8 0 -24 8t-31.5 19.5t-27.5 24.5t-12 24q0 12 5.5 35.5t14.5 52.5t20 61t23 60l-7 2q-19 -37 -39 -74t-38.5 -70t-35.5 -58t-30 -38q-18 -17 -42.5 -31.5t-44.5 -14.5q-26 0 -46 7.5t-34 19.5t-21 26.5t-7 27.5q0 24 13.5 68.5t33.5 96.5q8 20 16.5 43.5
t16.5 43.5q9 24 18 46l-43 6l-65 -93l-11 10q17 33 38 63.5t42.5 53.5t43 36.5t38.5 13.5q8 0 23.5 -8.5t30.5 -21t26 -26.5t11 -25q-1 -10 -4.5 -22t-10 -30t-16 -42.5t-22.5 -58.5q-14 -37 -24.5 -64t-10.5 -40q0 -4 5 -9t12 -9.5t16 -7.5t16 -3q18 0 56 56t99 184l38 116
l142 -2l-54 -161l-56 -208l42 -7l64 86l10 -9q-16 -33 -36.5 -62t-41.5 -50t-41.5 -33.5t-37.5 -12.5zM156 684h136l80 -184h-25z" />
    <glyph glyph-name="uacute" unicode="&#xfa;" horiz-adv-x="572" 
d="M408 -14q-8 0 -24 8t-31.5 19.5t-27.5 24.5t-12 24q0 12 5.5 35.5t14.5 52.5t20 61t23 60l-7 2q-19 -37 -39 -74t-38.5 -70t-35.5 -58t-30 -38q-18 -17 -42.5 -31.5t-44.5 -14.5q-26 0 -46 7.5t-34 19.5t-21 26.5t-7 27.5q0 24 13.5 68.5t33.5 96.5q8 20 16.5 43.5
t16.5 43.5q9 24 18 46l-43 6l-65 -93l-11 10q17 33 38 63.5t42.5 53.5t43 36.5t38.5 13.5q8 0 23.5 -8.5t30.5 -21t26 -26.5t11 -25q-1 -10 -4.5 -22t-10 -30t-16 -42.5t-22.5 -58.5q-14 -37 -24.5 -64t-10.5 -40q0 -4 5 -9t12 -9.5t16 -7.5t16 -3q18 0 56 56t99 184l38 116
l142 -2l-54 -161l-56 -208l42 -7l64 86l10 -9q-16 -33 -36.5 -62t-41.5 -50t-41.5 -33.5t-37.5 -12.5zM429 684h144l-257 -184h-22z" />
    <glyph glyph-name="ucircumflex" unicode="&#xfb;" horiz-adv-x="572" 
d="M408 -14q-8 0 -24 8t-31.5 19.5t-27.5 24.5t-12 24q0 12 5.5 35.5t14.5 52.5t20 61t23 60l-7 2q-19 -37 -39 -74t-38.5 -70t-35.5 -58t-30 -38q-18 -17 -42.5 -31.5t-44.5 -14.5q-26 0 -46 7.5t-34 19.5t-21 26.5t-7 27.5q0 24 13.5 68.5t33.5 96.5q8 20 16.5 43.5
t16.5 43.5q9 24 18 46l-43 6l-65 -93l-11 10q17 33 38 63.5t42.5 53.5t43 36.5t38.5 13.5q8 0 23.5 -8.5t30.5 -21t26 -26.5t11 -25q-1 -10 -4.5 -22t-10 -30t-16 -42.5t-22.5 -58.5q-14 -37 -24.5 -64t-10.5 -40q0 -4 5 -9t12 -9.5t16 -7.5t16 -3q18 0 56 56t99 184l38 116
l142 -2l-54 -161l-56 -208l42 -7l64 86l10 -9q-16 -33 -36.5 -62t-41.5 -50t-41.5 -33.5t-37.5 -12.5zM359 683h49l91 -191h-25l-106 90h-2l-146 -90h-25z" />
    <glyph glyph-name="udieresis" unicode="&#xfc;" horiz-adv-x="572" 
d="M408 -14q-8 0 -24 8t-31.5 19.5t-27.5 24.5t-12 24q0 12 5.5 35.5t14.5 52.5t20 61t23 60l-7 2q-19 -37 -39 -74t-38.5 -70t-35.5 -58t-30 -38q-18 -17 -42.5 -31.5t-44.5 -14.5q-26 0 -46 7.5t-34 19.5t-21 26.5t-7 27.5q0 24 13.5 68.5t33.5 96.5q8 20 16.5 43.5
t16.5 43.5q9 24 18 46l-43 6l-65 -93l-11 10q17 33 38 63.5t42.5 53.5t43 36.5t38.5 13.5q8 0 23.5 -8.5t30.5 -21t26 -26.5t11 -25q-1 -10 -4.5 -22t-10 -30t-16 -42.5t-22.5 -58.5q-14 -37 -24.5 -64t-10.5 -40q0 -4 5 -9t12 -9.5t16 -7.5t16 -3q18 0 56 56t99 184l38 116
l142 -2l-54 -161l-56 -208l42 -7l64 86l10 -9q-16 -33 -36.5 -62t-41.5 -50t-41.5 -33.5t-37.5 -12.5zM257 509q-31 0 -49 20.5t-18 46.5t18 47t49 21q32 0 49.5 -21t17.5 -47t-17.5 -46.5t-49.5 -20.5zM471 509q-31 0 -49 20.5t-18 46.5t18 47t49 21q32 0 49.5 -21
t17.5 -47t-17.5 -46.5t-49.5 -20.5z" />
    <glyph glyph-name="yacute" unicode="&#xfd;" horiz-adv-x="483" 
d="M1 -201q-52 0 -82.5 25.5t-30.5 62.5q0 30 21.5 50.5t48.5 20.5q19 0 35.5 -9t25.5 -25t8 -38t-17 -47l35 -10q11 3 28.5 12t36 20.5t36.5 23.5l30 20q3 96 -3.5 182.5t-18.5 152t-28 104.5t-33 39l-15 3l-61 -107l-12 10q15 33 30 63.5t32 53.5t38.5 36.5t49.5 13.5
q38 0 63 -18.5t40.5 -67.5t21.5 -133.5t6 -216.5q1 -1 3 -1h3q23 25 46.5 66.5t43.5 86t33.5 86t16.5 66.5q-24 -14 -44.5 -13t-35 11t-23 25.5t-8.5 31.5q0 31 20 53t55 22q38 0 60.5 -28t22.5 -68q0 -38 -15.5 -84t-42 -95.5t-61.5 -99t-75 -94.5q-31 -36 -67.5 -70
t-74 -59.5t-74 -41t-68.5 -15.5zM398 684h144l-257 -184h-22z" />
    <glyph glyph-name="thorn" unicode="&#xfe;" horiz-adv-x="519" 
d="M233 10q23 0 45 21q20 20 37 52.5t29 70t19 75.5t7 69q0 73 -44 73q-14 0 -30.5 -15t-34 -40.5t-36 -60.5t-36.5 -76q-5 -12 -10.5 -27.5t-10.5 -30t-8.5 -26.5t-3.5 -17q3 -12 11 -24.5t18.5 -22t23 -15.5t24.5 -6zM-121 -234l25 4q20 2 28 5.5t10 11.5l222 804
q2 11 0 19.5t-9 10.5l-72 10l4 14l236 28l-31 -113q-18 -60 -34.5 -112.5t-30 -95t-24 -73.5t-16.5 -49q-2 -6 1.5 -6.5t5.5 4.5q27 62 51 105t47.5 70.5t47 40t50.5 12.5q57 0 86.5 -41t29.5 -104q0 -58 -22.5 -116t-60.5 -104.5t-87.5 -75.5t-103.5 -29q-24 0 -48 14.5
t-35 37.5h-5l-70 -252q-2 -7 8 -10.5t39 -5.5l40 -4l2 -17h-287z" />
    <glyph glyph-name="ydieresis" unicode="&#xff;" horiz-adv-x="483" 
d="M1 -201q-52 0 -82.5 25.5t-30.5 62.5q0 30 21.5 50.5t48.5 20.5q19 0 35.5 -9t25.5 -25t8 -38t-17 -47l35 -10q11 3 28.5 12t36 20.5t36.5 23.5l30 20q3 96 -3.5 182.5t-18.5 152t-28 104.5t-33 39l-15 3l-61 -107l-12 10q15 33 30 63.5t32 53.5t38.5 36.5t49.5 13.5
q38 0 63 -18.5t40.5 -67.5t21.5 -133.5t6 -216.5q1 -1 3 -1h3q23 25 46.5 66.5t43.5 86t33.5 86t16.5 66.5q-24 -14 -44.5 -13t-35 11t-23 25.5t-8.5 31.5q0 31 20 53t55 22q38 0 60.5 -28t22.5 -68q0 -38 -15.5 -84t-42 -95.5t-61.5 -99t-75 -94.5q-31 -36 -67.5 -70
t-74 -59.5t-74 -41t-68.5 -15.5zM212 509q-31 0 -49 20.5t-18 46.5t18 47t49 21q32 0 49.5 -21t17.5 -47t-17.5 -46.5t-49.5 -20.5zM426 509q-31 0 -49 20.5t-18 46.5t18 47t49 21q32 0 49.5 -21t17.5 -47t-17.5 -46.5t-49.5 -20.5z" />
    <glyph glyph-name="dotlessi" unicode="&#x131;" horiz-adv-x="301" 
d="M122 -14q-8 0 -23 8t-30 19.5t-25.5 25t-10.5 23.5q0 4 4.5 19t11.5 36.5t16.5 48.5t18.5 55q22 65 50 145l-52 5l-60 -92l-11 10q15 33 34 63t39 53.5t40 37t37 13.5q8 0 26 -7t36.5 -17t32 -22t13.5 -23q0 -4 -4.5 -20t-12 -38.5t-16.5 -50.5t-19 -56q-23 -66 -53 -147
l42 -6l70 86l9 -9q-18 -33 -39 -62.5t-43 -51t-43 -34t-38 -12.5z" />
    <glyph glyph-name="Lslash" unicode="&#x141;" horiz-adv-x="579" 
d="M17 223l3 25l89 27l60 310q1 7 -6.5 10t-37.5 7l-30 6l-2 17h331l-4 -17l-47 -7q-14 -2 -27.5 -7t-14.5 -11l-49 -257q0 1 15.5 5.5t35.5 10.5q23 7 51 15v-25l-107 -32l-53 -275q12 -1 23 -2q9 -1 18 -1.5t12 -0.5q33 0 63 8.5t59 30t58.5 57.5t62.5 91l13 26h32
l-56 -234h-531l3 17l40 7q24 3 33 7.5t10 10.5l40 207z" />
    <glyph glyph-name="lslash" unicode="&#x142;" horiz-adv-x="288" 
d="M1 214l3 24l78 23l93 331q3 11 1 19.5t-9 10.5l-72 10l4 13l233 28l-52 -184q-10 -34 -19.5 -67.5t-17 -59.5t-12 -42l-4.5 -16l78 24v-24l-86 -25l-2 -9t-6.5 -23t-9.5 -32.5t-11 -37.5q-13 -45 -29 -102l42 -6l71 86l9 -9q-18 -33 -40 -62.5t-44.5 -51t-43.5 -34
t-38 -12.5q-8 0 -24 9t-31.5 22.5t-26 28t-7.5 24.5l47 166z" />
    <glyph glyph-name="OE" unicode="&#x152;" horiz-adv-x="1004" 
d="M389 24q3 0 9 0.5t12 0.5h14l108 563l-66 14q-54 -1 -97.5 -31t-74.5 -81t-48 -119.5t-17 -146.5q0 -96 39 -148t121 -52zM383 0q-79 0 -140 21t-102.5 58t-62.5 88t-21 111q0 68 27 130.5t79.5 110.5t128.5 77t174 29h523l-10 -216h-32l-5 29q-12 54 -31 86.5
t-45.5 50.5t-60 23.5t-75.5 3.5l-34 -2l-52 -271l34 1q45 2 77.5 21t49.5 60l17 36h24l-60 -265h-24l1 34q0 22 -4 38.5t-14.5 27.5t-30 17t-49.5 7l-24 2l-54 -282l70 -5q45 1 83.5 10t71.5 28.5t60.5 51t49.5 77.5l13 25h32l-59 -213h-525v0z" />
    <glyph glyph-name="oe" unicode="&#x153;" horiz-adv-x="710" 
d="M451 231q69 25 108.5 55t39.5 82q0 26 -15 42t-32 16q-16 0 -30 -14q-11 -10 -22 -29t-21 -43t-18 -51.5t-13 -56.5l3 -1v0zM186 14q30 0 58.5 42.5t51.5 123.5q17 53 24 97.5t7 70.5q0 39 -12.5 59.5t-33.5 20.5q-26 0 -57 -42.5t-57 -133.5q-15 -50 -21 -93.5t-6 -66.5
q0 -36 12.5 -57t33.5 -21zM201 -14q-40 0 -73.5 15t-57.5 41.5t-37.5 63.5t-13.5 80q0 51 20.5 99.5t54.5 86.5t78.5 61t92.5 23q47 0 82 -23t56 -63q35 39 82 62.5t103 23.5q57 0 91 -27t34 -68q0 -27 -16.5 -47t-50 -37t-83.5 -32.5t-116 -33.5q-2 -14 -3 -28.5t-1 -28.5
q0 -42 20.5 -66.5t59.5 -24.5q29 0 64.5 20t72.5 75l12 -10q-44 -85 -97 -123t-115 -38q-41 0 -70 16.5t-46 45.5q-29 -29 -65 -46t-78 -17z" />
    <glyph glyph-name="Scaron" unicode="&#x160;" horiz-adv-x="544" 
d="M258 -14q-72 0 -129.5 18t-98.5 38l16 181l29 -2l35 -119q22 -44 56.5 -67.5t92.5 -23.5q29 0 50.5 9.5t36.5 25t22.5 36.5t7.5 43q0 25 -11 44t-29 34t-41.5 28.5t-49.5 26.5q-31 16 -59 34t-49.5 40t-34.5 49.5t-13 62.5q0 38 17 73t47.5 61.5t72 42t90.5 15.5
q47 0 88 -12.5t73 -25.5l64 15l-29 -192l-27 1l-62 160q-14 10 -42 19t-58 9q-23 0 -42.5 -8t-33.5 -21.5t-22 -30.5t-8 -34q0 -23 10.5 -41t28.5 -33t41.5 -28t49.5 -26q30 -15 58 -32.5t49.5 -40t35 -51.5t13.5 -67q0 -43 -18 -81.5t-50.5 -67t-77.5 -45.5t-99 -17z
M229 857h25l105 -90h3l145 90h26l-165 -191h-48z" />
    <glyph glyph-name="scaron" unicode="&#x161;" horiz-adv-x="398" 
d="M157 -14q-31 0 -60 6t-51.5 18.5t-35.5 31.5t-13 45q0 33 18.5 55.5t50.5 22.5q25 0 41.5 -17t17.5 -43q1 -15 -5.5 -26t-21.5 -23q2 -4 9.5 -12.5t19.5 -16.5t27.5 -14t33.5 -6q25 3 42.5 23t17.5 45q0 12 -9 25.5t-23.5 27.5t-32.5 28.5t-36 29.5q-42 35 -65 64t-23 65
q0 31 14.5 57t39 44.5t57 29t68.5 10.5q29 0 56.5 -6t49 -17.5t35 -28.5t13.5 -39q0 -33 -17.5 -54t-46.5 -21t-47.5 19t-18.5 45q0 14 7.5 25t18.5 19q-4 4 -9 10.5t-13 12.5t-19.5 11t-28.5 5q-11 -2 -21.5 -9t-18.5 -16t-12.5 -20t-4.5 -21q0 -13 10 -27t25 -28t32 -27
t30 -24q18 -16 34.5 -32t30 -33t21.5 -34.5t8 -36.5q0 -30 -15.5 -56t-41.5 -45.5t-61.5 -30.5t-76.5 -11zM133 683h25l105 -90h3l145 90h26l-165 -191h-48z" />
    <glyph glyph-name="Ydieresis" unicode="&#x178;" horiz-adv-x="649" 
d="M122 17l44 7q41 4 43 18l45 233l-87 238q-9 24 -16 40.5t-15.5 26.5t-18.5 15t-25 8l-16 4l-1 18h329l-3 -18l-19 -3q-23 -2 -36 -7.5t-18.5 -14t-4.5 -20t6 -26.5l73 -222l5 -1l90 122q38 52 58 83.5t22.5 49.5t-12.5 25.5t-47 10.5l-23 3l-1 18h236l-4 -18l-25 -4
q-21 -3 -37 -10t-34.5 -26t-44.5 -52.5t-68 -89.5l-98 -133l-49 -252q-1 -7 7 -10t37 -7l33 -6v-17h-330zM321 676q-31 0 -49 20.5t-18 46.5t18 47t49 21q32 0 49.5 -21t17.5 -47t-17.5 -46.5t-49.5 -20.5zM535 676q-31 0 -49 20.5t-18 46.5t18 47t49 21q32 0 49.5 -21
t17.5 -47t-17.5 -46.5t-49.5 -20.5z" />
    <glyph glyph-name="Zcaron" unicode="&#x17d;" horiz-adv-x="635" 
d="M-5 20l469 574l-1 5l-79 2q-74 0 -138 -39t-107 -124l-12 -29h-31l46 216h525l-3 -20l-481 -574l-1 -4l79 -4q50 -3 88.5 5.5t72.5 31.5t67.5 62.5t72.5 98.5l15 28h32l-78 -249h-539zM280 857h25l105 -90h3l145 90h26l-165 -191h-48z" />
    <glyph glyph-name="zcaron" unicode="&#x17e;" horiz-adv-x="438" 
d="M262 -24q-39 0 -63.5 19t-40.5 44t-27.5 48t-26.5 32h-6l-44 -133q-28 -1 -51 15.5t-23 44.5q0 17 9.5 33.5t26 30.5t38.5 23.5t48 12.5l211 161q-30 -1 -52.5 5t-42 19t-38.5 32t-42 44q0 1 -6.5 -5t-12.5 -13t-9.5 -13t0.5 -6q26 -5 39.5 -23t13.5 -41q0 -25 -18 -41
t-44 -17q-16 -1 -28 5t-20 16t-12 22t-4 24q0 27 19 51t46 43.5t56 31.5t48 15q38 0 60 -17.5t35 -39.5t20 -42.5t13 -26.5q1 0 1.5 0.5t1.5 0.5h2l36 125q13 0 26.5 -4t24 -11.5t17.5 -18t7 -23.5q0 -42 -31.5 -67t-79.5 -30l-210 -159q30 1 57 -7.5t51 -25t45.5 -39
t40.5 -50.5q0 -1 7.5 7t15 18t12.5 18.5t1 7.5q-34 1 -48 20.5t-14 42.5q0 25 17 41.5t41 16.5q17 1 29.5 -5.5t20 -16.5t11 -22.5t3.5 -23.5q0 -26 -13.5 -51.5t-35.5 -46.5t-50.5 -34.5t-57.5 -16.5zM157 683h25l105 -90h3l145 90h26l-165 -191h-48z" />
    <glyph glyph-name="florin" unicode="&#x192;" horiz-adv-x="591" 
d="M118 -54q-60 0 -95.5 23.5t-35.5 64.5q0 28 19 48.5t53 20.5q20 0 36.5 -10t25 -26.5t7 -37t-19.5 -42.5l18 -4q8 -2 14.5 -3t9.5 -1q12 3 21.5 17t19 43.5t19.5 77.5t23 118l17 102l-102 4l19 52l97 12q7 24 15 49.5t18 48.5t21.5 43.5t24.5 33.5q29 29 73 44t93 15
q55 0 88 -26.5t33 -67.5q0 -32 -20 -52t-49 -20q-27 0 -44 13t-22 32t2 40t29 36q-8 3 -15 6l-12 4t-11 2q-13 -3 -24 -21t-20 -46t-16.5 -63.5t-15.5 -73.5l123 -1l-10 -59h-124l-25 -103q-19 -78 -47 -137t-69 -99q-59 -57 -142 -57z" />
    <glyph glyph-name="circumflex" unicode="&#x2c6;" horiz-adv-x="379" 
d="M249 683h49l91 -191h-25l-106 90h-2l-146 -90h-25z" />
    <glyph glyph-name="caron" unicode="&#x2c7;" horiz-adv-x="379" 
d="M121 683h25l105 -90h3l145 90h26l-165 -191h-48z" />
    <glyph glyph-name="breve" unicode="&#x2d8;" horiz-adv-x="407" 
d="M255 495q-61 0 -90.5 46.5t-29.5 135.5h25q8 -51 35.5 -72t69.5 -21q41 0 82.5 21.5t67.5 71.5h25q-32 -89 -77 -135.5t-108 -46.5z" />
    <glyph glyph-name="dotaccent" unicode="&#x2d9;" horiz-adv-x="418" 
d="M279 519q-37 0 -58 23.5t-21 54.5t21 55.5t57 24.5q38 0 58.5 -24.5t20.5 -55.5t-20 -54.5t-58 -23.5z" />
    <glyph glyph-name="ring" unicode="&#x2da;" horiz-adv-x="379" 
d="M261 519q35 0 55.5 23t20.5 55t-20.5 55.5t-55.5 23.5q-36 0 -56 -23.5t-20 -55.5t20 -55t56 -23zM261 501q-45 0 -70 28.5t-25 67.5t25 67.5t70 28.5q44 0 69 -28.5t25 -67.5t-25 -67.5t-69 -28.5z" />
    <glyph glyph-name="ogonek" unicode="&#x2db;" horiz-adv-x="415" 
d="M115 -240q-44 0 -72.5 27t-28.5 69q0 29 17 54.5t45 46.5t64.5 37.5t76.5 26.5h27q-41 -14 -69.5 -32.5t-46 -38t-25 -38t-7.5 -33.5q0 -30 19.5 -46.5t54.5 -16.5q23 0 44 8.5t38 20.5l4 -10q-11 -11 -25.5 -24t-32.5 -24t-39 -19t-44 -8z" />
    <glyph glyph-name="tilde" unicode="&#x2dc;" horiz-adv-x="406" 
d="M337 506q-23 0 -48 10t-49.5 22.5t-46 22.5t-38.5 10q-14 0 -25 -10t-23 -46h-11.5t-11.5 -1q10 42 20.5 69.5t24 44t30.5 23t39 6.5q23 0 47.5 -10t48 -22.5t45 -22.5t37.5 -10q14 0 27 10t26 46h10t11 1q-10 -42 -21 -69.5t-23.5 -44t-29 -23t-39.5 -6.5z" />
    <glyph glyph-name="hungarumlaut" unicode="&#x2dd;" horiz-adv-x="459" 
d="M446 684h140l-253 -184h-21zM247 684h139l-253 -184h-20z" />
    <glyph glyph-name="pi" unicode="&#x3c0;" horiz-adv-x="733" 
d="M398 297q34 0 55.5 25.5t21.5 67.5q0 43 -21.5 66.5t-58.5 25.5l-23 -2v-180q5 -1 11.5 -2t14.5 -1zM228 136l24 4q14 2 19 5t5 6v316q0 4 -4.5 6t-23.5 5l-19 4l-2 16h175q87 0 130 -26t43 -76q0 -52 -46.5 -84t-126.5 -32q-7 0 -15.5 0.5t-14.5 1.5v-132q0 -4 5 -6
t23 -4l25 -4l3 -17h-202zM385 -8q66 0 123.5 25.5t100.5 69t67.5 101.5t24.5 124t-24.5 125t-67.5 102.5t-100.5 69t-123.5 25.5t-124 -25.5t-100.5 -69t-67.5 -102.5t-25 -125t25 -124t67.5 -101.5t100.5 -69t124 -25.5zM385 -28q-70 0 -132 26.5t-108.5 73t-73 108.5
t-26.5 132q0 71 26.5 133t73 108.5t108.5 73.5t132 27t132 -27t108 -73.5t72.5 -108.5t26.5 -133q0 -70 -26.5 -132t-72.5 -108.5t-108 -73t-132 -26.5z" />
    <glyph glyph-name="endash" unicode="&#x2013;" horiz-adv-x="439" 
d="M21 261h407l-1 -41h-413z" />
    <glyph glyph-name="emdash" unicode="&#x2014;" horiz-adv-x="909" 
d="M21 261h877l-1 -41h-883z" />
    <glyph glyph-name="quoteleft" unicode="&#x2018;" horiz-adv-x="221" 
d="M147 349q-23 0 -40 8.5t-28 22t-16 30.5t-5 35q0 29 14.5 58.5t41 56t64 48.5t83.5 36l9 -11q-60 -25 -91.5 -57.5t-31.5 -70.5q0 -19 8 -33.5t19.5 -25t25 -16.5t24.5 -9q0 -28 -21.5 -50t-55.5 -22z" />
    <glyph glyph-name="quoteright" unicode="&#x2019;" horiz-adv-x="221" 
d="M58 369q60 25 91.5 57.5t31.5 70.5q0 19 -8 33.5t-19.5 24.5t-25 16t-24.5 9q0 29 21.5 51t55.5 22q23 0 40 -8.5t28 -22t16 -30.5t5 -35q0 -29 -14.5 -58.5t-41 -56t-64 -48.5t-83.5 -37z" />
    <glyph glyph-name="quotesinglbase" unicode="&#x201a;" horiz-adv-x="221" 
d="M-42 -128q60 25 91.5 57.5t31.5 70.5q0 19 -8 33.5t-19.5 24.5t-25 16t-24.5 9q0 29 21.5 51t55.5 22q23 0 40 -8.5t28 -22t16 -30.5t5 -35q0 -29 -14.5 -58.5t-41 -56t-64 -48.5t-83.5 -37z" />
    <glyph glyph-name="quotedblleft" unicode="&#x201c;" horiz-adv-x="429" 
d="M147 349q-23 0 -40 8.5t-28 22t-16 30.5t-5 35q0 29 14.5 58.5t41 56t64 48.5t83.5 36l9 -11q-60 -25 -91.5 -57.5t-31.5 -70.5q0 -19 8 -33.5t19.5 -25t25 -16.5t24.5 -9q0 -28 -21.5 -50t-55.5 -22zM355 349q-23 0 -40 8.5t-28 22t-16 30.5t-5 35q0 29 14.5 58.5t41 56
t64 48.5t83.5 36l9 -11q-60 -25 -91.5 -57.5t-31.5 -70.5q0 -19 8 -33.5t19.5 -25t25 -16.5t24.5 -9q0 -28 -21.5 -50t-55.5 -22z" />
    <glyph glyph-name="quotedblright" unicode="&#x201d;" horiz-adv-x="429" 
d="M266 369q60 25 91.5 57.5t31.5 70.5q0 19 -8 33.5t-19.5 24.5t-25 16t-24.5 9q0 29 21.5 51t55.5 22q23 0 40 -8.5t28 -22t16 -30.5t5 -35q0 -29 -14.5 -58.5t-41 -56t-64 -48.5t-83.5 -37zM58 369q60 25 91.5 57.5t31.5 70.5q0 19 -8 33.5t-19.5 24.5t-25 16t-24.5 9
q0 29 21.5 51t55.5 22q23 0 40 -8.5t28 -22t16 -30.5t5 -35q0 -29 -14.5 -58.5t-41 -56t-64 -48.5t-83.5 -37z" />
    <glyph glyph-name="quotedblbase" unicode="&#x201e;" horiz-adv-x="429" 
d="M166 -128q60 25 91.5 57.5t31.5 70.5q0 19 -8 33.5t-19.5 24.5t-25 16t-24.5 9q0 29 21.5 51t55.5 22q23 0 40 -8.5t28 -22t16 -30.5t5 -35q0 -29 -14.5 -58.5t-41 -56t-64 -48.5t-83.5 -37zM-42 -128q60 25 91.5 57.5t31.5 70.5q0 19 -8 33.5t-19.5 24.5t-25 16t-24.5 9
q0 29 21.5 51t55.5 22q23 0 40 -8.5t28 -22t16 -30.5t5 -35q0 -29 -14.5 -58.5t-41 -56t-64 -48.5t-83.5 -37z" />
    <glyph glyph-name="dagger" unicode="&#x2020;" horiz-adv-x="444" 
d="M248 405h-195v23h197l30 198h22l-30 -198h197l-3 -23h-195l-85 -560h-22z" />
    <glyph glyph-name="daggerdbl" unicode="&#x2021;" horiz-adv-x="444" 
d="M193 31h-197l3 22h196l55 362h-195v22h197l29 189h22l-29 -189h197l-3 -22h-195l-56 -362h195l1 -22h-198l-28 -186h-23z" />
    <glyph glyph-name="bullet" unicode="&#x2022;" horiz-adv-x="434" 
d="M219 39q-10 0 -30 6t-41 15t-39 19t-25 17q-7 8 -17 26t-19 39t-15 40.5t-6 30.5t6 30.5t15 40.5t19 39.5t17 25.5q8 8 26 17.5t39 18t41 14.5t30 6q11 0 30.5 -6t40.5 -14.5t39 -18t25 -17.5q8 -7 17.5 -25.5t18 -39.5t14.5 -40.5t6 -30.5t-6 -30.5t-14.5 -40.5t-18 -39
t-17.5 -26q-7 -8 -25.5 -18t-39.5 -18.5t-40.5 -14.5t-30.5 -6z" />
    <glyph glyph-name="ellipsis" unicode="&#x2026;" horiz-adv-x="683" 
d="M313 -13q-32 0 -55 23t-23 56q0 32 23 55t55 23t54.5 -23.5t22.5 -54.5q0 -16 -6 -30.5t-16.5 -25t-24.5 -17t-30 -6.5zM541 -13q-32 0 -55 23t-23 56q0 32 23 55t55 23t54.5 -23.5t22.5 -54.5q0 -16 -6 -30.5t-16.5 -25t-24.5 -17t-30 -6.5zM86 -13q-32 0 -55 23t-23 56
q0 32 22.5 55t54.5 23t54.5 -23.5t23.5 -54.5q0 -16 -6.5 -30.5t-17 -25t-24.5 -17t-29 -6.5z" />
    <glyph glyph-name="perthousand" unicode="&#x2030;" horiz-adv-x="924" 
d="M197 384q27 0 48.5 9.5t37 26t24 38.5t8.5 47q0 24 -8 45.5t-22.5 37.5t-35 25t-46.5 9q-27 0 -48.5 -10t-37 -27t-24 -39.5t-8.5 -47.5q0 -50 30.5 -82t81.5 -32zM196 364q-30 0 -54.5 10t-42.5 28t-27.5 42.5t-9.5 52.5q0 29 10.5 55.5t29 46.5t45 31.5t57.5 11.5
q30 0 55 -10.5t43 -28.5t27.5 -42.5t9.5 -52.5q0 -29 -10 -55.5t-29 -46t-45.5 -31t-58.5 -11.5zM440 4q26 0 48 9.5t37.5 26.5t24 39.5t8.5 47.5q0 24 -8 45t-23 36.5t-35.5 24.5t-45.5 9q-27 0 -48.5 -10t-37 -27t-24 -39.5t-8.5 -47.5q0 -50 30.5 -82t81.5 -32zM438 -16
q-30 0 -54.5 10t-42 28t-27 42t-9.5 52q0 30 10 56.5t29 46.5t45 31.5t58 11.5q30 0 54.5 -10.5t42.5 -28.5t27.5 -42.5t9.5 -52.5q0 -29 -10 -55.5t-29 -46t-45.5 -31t-58.5 -11.5zM755 4q26 0 48 9.5t38 26.5t24.5 39.5t8.5 47.5q0 24 -8 45t-23 36.5t-36 24.5t-46 9
q-27 0 -48.5 -10t-37 -27t-24 -39.5t-8.5 -47.5q0 -50 30.5 -82t81.5 -32zM754 -16q-30 0 -55 10t-42 28t-26.5 42t-9.5 52q0 30 10 56.5t28.5 46.5t44.5 31.5t58 11.5q30 0 54.5 -10.5t42.5 -28.5t27.5 -42.5t9.5 -52.5q0 -29 -10 -55.5t-29 -46t-45 -31t-58 -11.5z
M606 640h26l-597 -654h-27z" />
    <glyph glyph-name="guilsinglleft" unicode="&#x2039;" horiz-adv-x="290" 
d="M14 209l3 34l286 170l4 -9l-161 -189l94 -174l-7 -10z" />
    <glyph glyph-name="guilsinglright" unicode="&#x203a;" horiz-adv-x="291" 
d="M-11 39l158 189l-91 174l7 10l219 -177l-5 -34l-284 -171z" />
    <glyph glyph-name="fraction" unicode="&#x2044;" horiz-adv-x="506" 
d="M548 640h31l-591 -653h-30z" />
    <glyph glyph-name="Euro" unicode="&#x20ac;" horiz-adv-x="530" 
d="M299 -12q-54 0 -95.5 19t-70 51.5t-44 76.5t-19.5 94h-63l3 23h59v14q1 23 3.5 46t8.5 46h-50l3 23h54q18 52 49.5 98t74.5 80t95 53.5t111 19.5q34 0 61.5 -9t47 -23.5t30 -34t10.5 -40.5q0 -30 -20.5 -53t-55.5 -23q-28 0 -44.5 15t-21 37t4 47t30.5 45q-7 5 -15.5 11
t-34.5 6q-30 0 -57 -18.5t-50 -49.5t-40.5 -72.5t-27.5 -88.5h191l3 -23h-200q-6 -40 -6 -82v-12t1 -12h178l3 -23h-180q10 -76 48.5 -120.5t106.5 -44.5q72 0 123 62l10 -8q-37 -61 -92.5 -95.5t-121.5 -34.5z" />
    <glyph glyph-name="trademark" unicode="&#x2122;" horiz-adv-x="579" 
d="M350 415l12 2q6 0 10 1.5t6 5.5t3 13t2 24l4 134q-5 8 -9 11t-10 5l-17 2l-1 12h106l39 -148h4l46 148h106l-2 -12l-18 -2q-13 -3 -13 -8l5 -166q0 -12 3.5 -14.5t12.5 -4.5l15 -3l1 -12h-124v12l19 3q7 1 9 4.5t2 15.5l-3 165h-4l-65 -196h-28l-55 187h-2h-2l-3 -135
q-1 -29 2.5 -35.5t16.5 -6.5l13 -2l2 -12h-85zM162 415l18 3q10 1 10 7v188h-3q-23 0 -36.5 -19.5t-21.5 -44.5l-3 -8h-17l7 84h214l4 -85h-18l-2 8q-8 28 -20 46.5t-36 18.5h-6v-189q0 -2 2 -3t11 -3l15 -3l1 -12h-120z" />
    <glyph glyph-name="Omega" unicode="&#x2126;" horiz-adv-x="596" 
d="M416 497q-18 7 -28.5 22t-13 33t4.5 35.5t25 30.5q-11 3 -21 6q-8 2 -16.5 3.5t-13.5 1.5q-32 -14 -54 -63t-38 -129h136q4 14 9 29.5t10 30.5zM154 -18q19 0 35 -10t24 -26t6.5 -36.5t-18.5 -41.5l16 -4q6 -2 12.5 -3t9.5 -1q14 4 26 17.5t23.5 42t24 75.5t26.5 117
l45 265h-136l-64 -290q-13 -58 -30 -105zM484 616q29 29 64 43t88 14q57 0 90.5 -27.5t33.5 -67.5q0 -32 -20 -51.5t-49 -19.5q-27 0 -43.5 14t-22 34t1.5 41.5t28 37.5l-16 6q-15 5 -25 5q-16 -5 -28.5 -23.5t-23 -46t-19 -63t-16.5 -75.5l112 -1l-11 -59h-114l-58 -259
q-33 -157 -107 -231q-57 -57 -143 -57q-37 0 -65.5 13t-42.5 36q-5 -5 -9.5 -10.5t-9.5 -10.5q-29 -29 -62 -43.5t-74 -14.5q-51 0 -81.5 24t-30.5 62q0 26 18.5 46t50.5 20q19 0 35 -10t24.5 -26t6.5 -36t-18 -41l10 -5q10 -4 16 -4q12 4 23 18.5t22 44.5t22.5 78.5
t25.5 118.5l49 282l-92 4l19 52l88 12q5 19 12.5 40t17.5 42t22.5 40.5t28.5 35.5q29 29 67 44.5t98 15.5q36 0 63.5 -11.5t43.5 -30.5z" />
    <glyph glyph-name="Delta" unicode="&#x2206;" horiz-adv-x="549" 
d="M187 -13q-40 0 -75 10t-60.5 27t-40.5 41t-15 52q0 44 26.5 68.5t61.5 24.5q32 0 56 -21t24 -53t-16 -52t-38 -28q7 -23 30.5 -35t46.5 -12q36 0 58.5 29.5t36.5 102.5l84 445q0 3 -1 5.5t-5.5 4.5t-13.5 4t-25 3l-44 6l-2 17h337l-3 -17l-40 -7q-23 -3 -32.5 -7.5
t-10.5 -10.5l-86 -445q-5 -29 -28.5 -56.5t-58.5 -48.5t-78 -34t-88 -13z" />
    <glyph glyph-name="radical" unicode="&#x221a;" horiz-adv-x="836" 
d="M154 -18q19 0 35 -10t24 -26t6.5 -36.5t-18.5 -41.5l16 -4q6 -2 12.5 -3t9.5 -1q14 4 26 17.5t23.5 42t23.5 75.5t26 117l45 265h-135l-64 -290q-13 -58 -30 -105zM416 497q-18 7 -28.5 22t-13 32.5t4.5 35.5t25 31q-11 2 -21 5q-8 2 -16.5 3.5t-13.5 1.5
q-32 -14 -54 -62.5t-38 -128.5h136q4 14 8.5 29.5t10.5 30.5zM874 673l-171 -598l42 -6l70 85l10 -9q-18 -33 -40 -62t-44.5 -50.5t-43.5 -34t-38 -12.5q-8 0 -24 8.5t-31.5 20.5t-25.5 25.5t-7 23.5l125 448q-16 8 -25.5 23t-11 32t6 34.5t24.5 30.5q-8 3 -18 6
q-18 5 -42 5q-42 -14 -64.5 -70t-38.5 -136l99 -1l-10 -59h-102l-58 -259q-17 -78 -44.5 -135.5t-64.5 -95.5q-57 -57 -141 -57q-37 0 -65.5 13t-42.5 36q-5 -5 -9.5 -10.5t-9.5 -10.5q-29 -29 -62 -43.5t-74 -14.5q-51 0 -81.5 24t-30.5 62q0 26 18.5 46t50.5 20
q19 0 35 -10t24.5 -26t6.5 -36t-18 -41l10 -5q10 -4 16 -4q12 4 23 18.5t22 44.5t22.5 78.5t25.5 118.5l49 282l-92 4l19 52l88 12q5 19 12.5 40t17.5 42t22.5 40.5t28.5 35.5q29 29 67 44.5t98 15.5q37 0 64.5 -11.5t43.5 -31.5q60 58 173 58q31 0 56.5 -8t43.5 -22z" />
    <glyph glyph-name="approxequal" unicode="&#x2248;" horiz-adv-x="833" 
d="M416 497q-18 7 -28.5 22t-13 32.5t4.5 35.5t25 31q-11 3 -21 6q-8 2 -16.5 3.5t-13.5 1.5q-32 -14 -54 -63t-38 -129h136q4 14 8.5 29.5t10.5 30.5zM154 -18q19 0 35 -10t24 -26t6.5 -36.5t-18.5 -41.5l16 -4q6 -2 12.5 -3t9.5 -1q14 4 26 17.5t23.5 42t23.5 75.5t26 117
l45 265h-135l-64 -290q-13 -58 -30 -105zM485 615q60 58 173 58q61 0 99.5 -27.5t38.5 -69.5q0 -31 -20.5 -50.5t-49.5 -19.5q-26 0 -42.5 14t-22 34t1 41.5t27.5 36.5q-14 3 -26 6q-23 5 -34 5q-42 -14 -64.5 -70t-38.5 -136l122 -1q12 9 24 14.5t23 5.5q8 0 25 -8
t34.5 -19t30 -24t11.5 -24q0 -4 -4.5 -19.5t-11.5 -37.5t-16 -48.5t-18 -53.5q-22 -63 -50 -142l36 -6l75 89l10 -10q-18 -33 -40 -63.5t-44 -53.5t-43 -36.5t-38 -13.5q-8 0 -23 9t-30 21.5t-25.5 27t-9.5 24.5q0 4 4.5 19t11.5 37t16 49t19 54q23 64 51 144l-3 6h-150
l-58 -259q-17 -78 -44.5 -135.5t-64.5 -95.5q-57 -57 -141 -57q-37 0 -65.5 13t-42.5 36q-5 -5 -9.5 -10.5t-9.5 -10.5q-29 -29 -62 -43.5t-74 -14.5q-51 0 -81.5 24t-30.5 62q0 26 18.5 46t50.5 20q19 0 35 -10t24.5 -26t6.5 -36t-18 -41l10 -5q10 -4 16 -4q12 4 23 18.5
t22 44.5t22.5 78.5t25.5 118.5l49 282l-92 4l19 52l88 12q5 19 12.5 40t17.5 42t22.5 40.5t28.5 35.5q29 29 67 44.5t98 15.5q37 0 64.5 -11.5t43.5 -31.5z" />
    <glyph glyph-name="apple" unicode="&#xf8ff;" horiz-adv-x="758" 
d="M443 168l175 -88l-86 177l183 64l-183 62l86 177l-175 -88l-63 186l-65 -186l-175 88l87 -177l-185 -63l185 -65l-87 -175l175 88l63 -186zM294 116l-186 -68l67 187l-180 86l180 83l-67 188l186 -68l86 181l82 -181l189 68l-69 -188l180 -82l-180 -85l69 -189l-189 69
l-84 -181z" />
    <glyph glyph-name="fi" unicode="&#xfb01;" horiz-adv-x="564" 
d="M-57 -200q-51 0 -81.5 24t-30.5 62q0 26 18.5 46t50.5 20q19 0 35 -10t24.5 -26t6.5 -36t-18 -41l10 -5q10 -4 16 -4q12 4 23 18.5t22 44.5t22.5 78.5t25.5 118.5l49 282l-92 4l19 52l88 12q5 19 13.5 42.5t20 47.5t25 46t28.5 38q59 59 174 59q61 0 99.5 -27.5
t38.5 -69.5q0 -31 -20.5 -50.5t-49.5 -19.5q-26 0 -42.5 14t-22 34t1 41.5t27.5 36.5q-14 3 -25 6q-10 2 -19.5 3.5t-14.5 1.5q-21 -7 -37 -25t-27.5 -45t-20.5 -61.5t-17 -74.5l120 -1q12 9 24 14.5t23 5.5q8 0 25 -8t34.5 -19t30 -24t11.5 -24q0 -4 -4.5 -19.5
t-11.5 -37.5t-16 -48.5t-18 -53.5q-22 -63 -50 -142l36 -6l75 89l10 -10q-18 -33 -40 -63.5t-44 -53.5t-43 -36.5t-38 -13.5q-8 0 -23 9t-30 21.5t-25.5 27t-9.5 24.5q0 4 4.5 19t11.5 37t16 49t19 54q23 64 51 144l-3 6h-148l-64 -290q-17 -78 -42.5 -135t-62.5 -94
q-58 -58 -138 -58z" />
    <glyph glyph-name="fl" unicode="&#xfb02;" horiz-adv-x="570" 
d="M608 673l-171 -598l42 -6l70 85l10 -9q-18 -33 -40 -62t-44.5 -50.5t-43.5 -34t-38 -12.5q-8 0 -24 8.5t-31.5 20.5t-25.5 25.5t-7 23.5l125 448q-16 8 -25.5 23t-11 32t6 34.5t24.5 30.5q-8 3 -18 6q-18 5 -41 5q-43 -14 -65.5 -70t-38.5 -136l99 -1l-10 -59h-102
l-64 -290q-17 -78 -41.5 -135t-61.5 -94q-58 -58 -138 -58q-51 0 -81.5 24t-30.5 62q0 26 18.5 46t50.5 20q19 0 35 -10t24.5 -26t6.5 -36t-18 -41l10 -5q10 -4 16 -4q12 4 23 18.5t22 44.5t22.5 78.5t25.5 118.5l49 282l-92 4l19 52l88 12q5 19 13.5 42.5t20 47.5t25 46
t28.5 38q59 59 174 59q31 0 56.5 -8t43.5 -22z" />
    </font>
</defs>
</svg>
